{"glyphs":{"0":{"ha":772,"x_min":25,"x_max":753,"o":"m 25 504 q 107 847 25 703 q 389 1023 207 1023 q 671 847 570 1023 q 753 504 753 700 q 672 161 753 304 q 389 -14 572 -14 q 107 163 207 -14 q 25 504 25 307 m 86 504 q 151 205 86 333 q 389 45 235 44 q 616 187 532 45 q 693 504 693 313 q 628 806 693 677 q 389 966 546 967 q 163 822 248 966 q 86 504 86 691 z "},"1":{"ha":757,"x_min":241,"x_max":467,"o":"m 241 935 l 279 991 l 467 991 l 467 0 l 410 0 l 410 935 l 241 935 z "},"2":{"ha":757,"x_min":85,"x_max":686,"o":"m 85 0 l 571 562 q 629 736 629 646 q 559 885 629 823 q 399 945 490 945 q 222 872 286 945 q 168 765 184 829 l 106 765 q 178 908 115 837 q 399 1000 261 1000 q 602 926 517 1000 q 686 736 686 854 q 596 498 686 615 q 558 453 584 483 q 494 379 533 424 l 210 57 l 685 57 l 685 0 l 85 0 z "},"3":{"ha":757,"x_min":103,"x_max":659,"o":"m 103 210 l 164 210 q 243 96 182 142 q 374 50 302 50 q 530 113 465 50 q 596 268 595 178 q 515 444 596 380 q 390 493 454 493 l 332 493 l 332 575 l 390 575 q 530 624 477 575 q 582 761 582 671 q 526 901 582 847 q 383 957 471 957 q 182 782 216 957 l 117 782 q 201 951 129 890 q 383 1014 273 1014 q 574 945 497 1014 q 650 761 650 877 q 464 534 650 576 q 659 268 659 476 q 578 69 659 144 q 374 -7 497 -7 q 197 50 271 -7 q 103 210 127 107 z "},"4":{"ha":757,"x_min":64,"x_max":747,"o":"m 64 189 l 632 1006 l 632 244 l 747 244 l 747 189 l 632 189 l 632 0 l 574 0 l 574 189 l 64 189 m 165 244 l 574 244 l 574 829 l 165 244 z "},"5":{"ha":757,"x_min":37,"x_max":714,"o":"m 37 195 l 90 215 q 184 93 130 133 q 361 43 252 43 q 574 134 490 43 q 657 354 657 222 q 564 562 657 483 q 361 633 476 637 l 317 632 l 296 632 q 262 627 283 632 q 164 607 215 627 l 262 991 l 643 991 l 643 935 l 307 935 l 248 679 l 302 686 l 361 690 q 603 607 494 699 q 714 354 714 512 q 616 90 714 193 q 361 -14 518 -14 q 37 195 125 -14 z "},"6":{"ha":757,"x_min":40,"x_max":722,"o":"m 40 318 l 40 349 q 40 363 40 355 q 41 379 40 371 q 46 402 43 387 q 56 441 49 418 q 74 496 62 471 q 97 546 85 522 l 346 991 l 411 991 l 200 607 l 258 636 l 318 653 l 380 659 q 624 561 526 659 q 722 318 722 463 q 625 74 722 171 q 380 -24 528 -24 q 135 71 229 -24 q 40 318 41 168 m 96 318 q 176 114 96 195 q 380 32 258 32 q 585 114 503 32 q 667 318 667 196 q 583 518 667 432 q 380 603 500 603 q 179 519 262 603 q 96 318 96 436 z "},"7":{"ha":757,"x_min":33,"x_max":741,"o":"m 33 22 l 635 935 l 43 935 l 43 991 l 741 991 l 81 -14 l 33 22 z "},"8":{"ha":757,"x_min":92,"x_max":669,"o":"m 92 264 q 140 424 92 354 q 277 525 189 492 q 165 614 208 546 q 125 753 125 679 q 196 936 125 865 q 379 1008 267 1008 q 564 938 493 1008 q 635 753 635 867 q 593 611 635 675 q 479 525 553 549 q 602 446 555 497 q 669 264 669 374 q 589 61 669 140 q 382 -18 507 -18 q 174 60 256 -18 q 92 264 92 139 m 147 264 q 212 104 147 170 q 379 37 279 38 q 546 102 481 37 q 614 264 614 165 q 545 425 614 358 q 469 480 510 460 q 379 500 428 500 q 292 480 332 500 q 216 427 252 460 q 147 264 147 357 m 180 753 q 237 612 180 669 q 301 567 265 585 q 379 549 336 549 q 459 565 424 549 q 522 610 494 582 q 579 753 579 667 q 522 896 579 839 q 379 953 465 953 q 237 896 294 953 q 180 753 180 839 z "},"9":{"ha":757,"x_min":41,"x_max":724,"o":"m 41 657 q 139 902 41 804 q 383 999 236 999 q 627 901 530 999 q 724 657 724 804 q 720 597 724 628 q 708 533 717 566 q 691 480 701 505 q 667 429 681 454 l 419 -14 l 367 11 l 564 368 l 505 339 l 446 322 l 383 317 q 139 412 236 317 q 41 657 42 509 m 97 657 q 179 456 97 541 q 383 372 260 372 q 586 454 504 372 q 668 657 668 536 q 587 861 668 781 q 383 943 505 943 q 179 861 261 943 q 97 657 97 779 z "},"\u0000":{"ha":1389,"x_min":0,"x_max":0,"o":""},"\r":{"ha":255,"x_min":100,"x_max":157,"o":"m 100 0 l 100 574 l 157 574 l 157 0 l 100 0 z "},"\u0005":{"ha":503,"x_min":113,"x_max":411,"o":"m 113 737 l 142 771 q 268 717 196 717 q 386 768 334 717 l 411 737 q 262 676 358 676 q 113 737 170 676 z "},"\u0006":{"ha":431,"x_min":123,"x_max":215,"o":"m 123 734 q 170 781 123 772 q 215 734 204 781 q 170 689 215 688 q 138 701 154 689 q 123 734 125 713 z "},"\b":{"ha":411,"x_min":97,"x_max":328,"o":"m 97 747 q 132 828 97 793 q 212 863 167 863 q 293 828 258 863 q 328 747 328 793 q 293 667 328 701 q 212 632 258 632 q 132 667 166 632 q 97 747 97 701 m 126 749 q 153 689 126 715 q 212 663 179 663 q 272 689 245 663 q 298 749 298 715 q 272 808 298 782 q 212 835 245 835 q 153 808 179 835 q 126 749 126 782 z "},"\u000b":{"ha":368,"x_min":97,"x_max":269,"o":"m 97 -89 l 104 -58 q 132 0 106 -50 l 196 0 l 170 -53 q 161 -98 161 -77 q 170 -135 161 -117 q 203 -149 179 -149 q 237 -140 216 -149 l 269 -119 l 269 -175 q 232 -197 257 -189 l 207 -205 l 180 -208 q 121 -183 143 -208 q 97 -119 97 -157 l 97 -89 z "},"\f":{"ha":525,"x_min":93,"x_max":429,"o":"m 93 777 l 122 807 l 261 669 l 400 807 l 429 777 l 261 610 l 93 777 z "},"\u0019":{"ha":1141,"x_min":69,"x_max":1117,"o":"m 69 496 q 211 863 69 721 q 579 1006 354 1006 q 947 864 803 1006 q 1090 496 1090 721 q 893 83 1090 225 l 1117 -140 l 1040 -140 l 847 54 q 579 -14 729 -14 q 212 127 354 -14 q 69 496 69 271 m 126 496 q 253 171 126 297 q 579 43 380 43 q 804 97 704 43 l 595 309 l 668 309 l 851 125 q 1013 345 971 208 q 946 322 985 322 q 865 357 900 322 q 831 437 831 392 q 865 518 831 484 q 946 553 900 553 q 1026 518 992 553 l 1034 511 q 907 822 1029 701 q 579 950 779 949 q 254 822 379 950 q 126 496 127 694 m 330 437 q 365 518 330 484 q 446 553 400 553 q 526 518 492 553 q 561 437 561 484 q 526 357 561 391 q 446 322 492 322 q 365 357 399 322 q 330 437 330 392 m 359 439 q 386 379 359 406 q 446 353 412 353 q 505 379 479 353 q 532 439 532 406 q 506 498 532 472 q 446 525 479 525 q 386 498 412 525 q 359 439 359 472 m 429 415 q 438 436 429 427 q 460 446 447 446 q 481 437 472 446 q 490 415 490 428 q 481 394 490 403 q 460 385 472 385 q 438 394 448 385 q 429 415 429 403 m 860 439 q 886 379 860 406 q 946 353 913 353 q 1006 379 979 353 q 1028 412 1023 396 q 1030 430 1029 420 q 1032 447 1031 439 q 1006 498 1028 476 q 946 525 979 525 q 886 498 913 525 q 860 439 860 472 m 930 411 q 940 432 930 423 q 961 441 949 441 q 982 433 973 441 q 991 411 991 424 q 983 390 991 399 q 961 380 974 380 q 940 390 949 380 q 930 411 930 399 z "},"\u001a":{"ha":654,"x_min":43,"x_max":614,"o":"m 43 517 l 43 574 l 121 574 l 121 896 q 166 999 121 961 q 279 1036 212 1036 q 389 1003 345 1036 q 439 903 439 966 l 439 574 l 614 574 l 614 517 l 439 517 l 439 0 l 383 0 l 383 517 l 178 517 l 178 0 l 121 0 l 121 517 l 43 517 m 178 574 l 383 574 l 383 889 q 279 981 383 981 q 178 886 178 981 l 178 574 z "},"\u001b":{"ha":637,"x_min":43,"x_max":600,"o":"m 43 517 l 43 574 l 121 574 l 121 846 q 164 958 121 916 q 279 1000 207 1000 q 404 949 367 1000 q 452 1010 408 987 q 529 1029 488 1029 q 550 1029 541 1029 q 564 1026 558 1028 l 600 1021 l 600 966 l 574 971 l 528 975 q 472 958 493 975 q 446 886 446 937 l 446 574 l 582 574 l 582 517 l 446 517 l 446 0 l 390 0 l 390 517 l 178 517 l 178 0 l 121 0 l 121 517 l 43 517 m 178 574 l 390 574 l 390 880 q 347 926 378 909 q 279 945 317 945 q 178 839 178 945 l 178 574 z "}," ":{"ha":354,"x_min":0,"x_max":0,"o":""},"!":{"ha":283,"x_min":93,"x_max":193,"o":"m 93 45 q 143 94 93 86 q 178 79 163 94 q 193 45 189 68 q 143 -5 193 3 q 93 45 93 -5 m 114 205 l 114 991 l 170 991 l 170 205 l 114 205 z "},"\"":{"ha":374,"x_min":85,"x_max":297,"o":"m 85 1010 l 142 1010 l 127 787 l 98 787 l 85 1010 m 240 1010 l 297 1010 l 283 787 l 256 787 l 240 1010 z "},"#":{"ha":751,"x_min":45,"x_max":725,"o":"m 45 489 l 56 524 l 233 524 l 272 684 l 77 684 l 87 717 l 281 717 l 323 893 l 357 893 l 315 717 l 509 717 l 551 893 l 585 893 l 543 717 l 725 717 l 714 684 l 534 684 l 496 524 l 685 524 l 673 489 l 488 489 l 443 307 l 408 307 l 454 489 l 260 489 l 216 314 l 183 314 l 225 489 l 45 489 m 268 524 l 463 524 l 501 684 l 306 684 l 268 524 z "},"$":{"ha":658,"x_min":50,"x_max":621,"o":"m 50 204 l 107 224 q 323 47 155 47 l 323 519 q 165 606 212 558 q 103 768 103 665 q 165 929 103 864 q 323 996 228 996 l 323 1069 l 379 1069 l 379 996 q 579 867 514 996 l 526 843 q 379 940 480 926 l 379 558 q 621 271 621 464 q 562 74 621 149 q 379 -9 497 -9 l 379 -85 l 323 -85 l 323 -11 q 147 46 220 -11 q 50 204 75 103 m 161 762 q 211 646 161 692 q 323 581 247 611 l 323 940 q 205 884 247 929 q 161 762 161 835 m 379 47 q 521 115 473 47 q 564 271 564 175 q 379 497 564 422 l 379 47 z "},"%":{"ha":737,"x_min":60,"x_max":684,"o":"m 60 794 q 110 917 60 863 q 232 968 161 968 q 354 916 302 968 q 406 794 406 865 q 355 673 406 720 q 232 624 302 623 q 113 675 164 624 q 60 794 60 728 m 86 0 l 625 991 l 681 991 l 142 0 l 86 0 m 117 794 q 151 715 117 748 q 232 681 186 681 q 314 714 273 681 q 349 794 349 748 q 314 876 349 842 q 232 911 279 911 q 151 876 184 911 q 117 794 117 842 m 338 160 q 387 282 338 229 q 510 334 439 334 q 632 282 581 334 q 684 160 684 231 q 633 39 684 86 q 510 -11 581 -12 q 390 40 442 -11 q 338 160 337 93 m 395 160 q 429 81 395 114 q 510 46 464 46 q 590 79 555 46 q 627 160 627 115 q 592 242 627 208 q 510 277 557 277 q 429 241 463 277 q 395 160 395 207 z "},"&":{"ha":836,"x_min":52,"x_max":782,"o":"m 52 212 q 161 431 52 329 l 318 546 l 262 629 l 221 700 q 200 787 200 743 q 258 925 200 871 q 401 981 318 981 q 555 930 497 981 q 614 786 614 880 q 492 606 614 689 l 390 536 l 607 207 l 751 325 l 782 285 l 635 165 l 745 0 l 679 0 l 591 131 q 278 -5 422 -5 q 114 56 178 -5 q 52 212 52 115 m 109 212 q 157 94 109 138 q 279 49 204 48 q 486 117 379 49 q 521 139 502 126 q 564 172 541 153 l 345 504 q 251 438 288 465 q 197 393 215 411 q 109 212 109 306 m 254 787 q 269 721 254 747 l 309 659 l 363 576 l 468 647 q 505 677 488 661 q 536 713 522 693 l 555 749 q 562 786 561 761 q 519 893 562 858 q 403 929 475 929 q 298 889 343 929 q 254 787 254 848 z "},"'":{"ha":227,"x_min":86,"x_max":142,"o":"m 86 672 l 86 993 l 142 993 l 142 672 l 86 672 z "},"(":{"ha":255,"x_min":53,"x_max":205,"o":"m 53 481 q 157 1047 53 770 l 205 1047 q 158 895 178 975 q 123 724 138 815 q 107 590 113 652 q 102 481 102 529 q 205 -86 102 189 l 157 -86 q 131 -14 143 -50 q 110 60 119 22 q 103 89 107 71 q 94 134 100 107 q 87 171 92 147 q 75 231 82 195 q 59 364 64 301 q 53 481 53 427 z "},")":{"ha":269,"x_min":75,"x_max":228,"o":"m 75 -86 q 123 69 103 -11 q 157 236 143 149 q 173 367 168 305 q 179 481 179 428 q 75 1047 179 762 l 123 1047 q 208 725 180 896 q 223 602 218 663 q 228 481 228 542 q 123 -86 228 182 l 75 -86 z "},"*":{"ha":401,"x_min":18,"x_max":379,"o":"m 18 775 q 183 861 18 820 l 129 871 l 83 888 q 18 946 18 913 q 49 981 18 972 q 125 942 86 981 l 191 875 l 170 945 l 161 1013 q 199 1065 161 1059 q 235 1013 235 1065 l 228 956 l 218 913 q 205 875 218 896 q 347 981 277 965 q 379 949 376 981 q 315 893 379 925 l 212 861 q 271 849 247 854 q 310 836 296 843 q 379 774 371 814 q 347 745 379 745 q 273 781 311 745 l 205 846 l 225 774 l 232 713 q 199 659 232 660 q 160 710 160 657 q 164 754 160 743 l 191 846 l 125 783 q 47 742 92 750 q 18 775 18 742 z "},"+":{"ha":525,"x_min":92,"x_max":439,"o":"m 92 339 l 92 396 l 233 396 l 233 538 l 297 538 l 297 396 l 439 396 l 439 339 l 297 339 l 297 197 l 233 197 l 233 339 l 92 339 z "},",":{"ha":248,"x_min":64,"x_max":215,"o":"m 64 -131 l 167 96 l 215 75 l 82 -143 l 64 -131 z "},"-":{"ha":376,"x_min":25,"x_max":318,"o":"m 25 339 l 25 396 l 318 396 l 318 339 l 25 339 z "},".":{"ha":157,"x_min":25,"x_max":117,"o":"m 25 37 q 71 83 25 75 q 117 37 106 83 q 71 -8 117 -9 q 39 4 55 -8 q 25 37 26 16 z "},"/":{"ha":398,"x_min":32,"x_max":378,"o":"m 32 0 l 323 1013 l 378 1013 l 89 0 l 32 0 z "},":":{"ha":226,"x_min":71,"x_max":163,"o":"m 71 37 q 117 83 71 75 q 163 37 152 83 q 117 -8 163 -9 q 85 4 101 -8 q 71 37 73 16 m 71 447 q 117 493 71 484 q 163 447 152 493 q 117 401 163 401 q 85 414 101 401 q 71 447 73 426 z "},";":{"ha":283,"x_min":57,"x_max":208,"o":"m 57 -131 l 160 96 l 208 75 l 75 -143 l 57 -131 m 97 447 q 143 493 97 484 q 189 447 178 493 q 143 401 189 401 q 111 414 127 401 q 97 447 99 426 z "},"<":{"ha":439,"x_min":45,"x_max":393,"o":"m 45 366 l 393 578 l 393 515 l 146 366 l 393 215 l 393 153 l 45 366 z "},"=":{"ha":411,"x_min":52,"x_max":366,"o":"m 52 254 l 52 310 l 366 310 l 366 254 l 52 254 m 52 424 l 52 481 l 366 481 l 366 424 l 52 424 z "},">":{"ha":439,"x_min":64,"x_max":412,"o":"m 64 153 l 64 215 l 310 366 l 64 515 l 64 578 l 412 366 l 64 153 z "},"?":{"ha":651,"x_min":64,"x_max":600,"o":"m 64 821 q 342 1006 140 1005 q 521 956 450 1006 q 600 794 600 899 q 538 639 600 709 q 502 607 531 629 q 422 549 472 585 l 306 464 q 236 342 237 414 q 260 289 236 309 q 318 269 283 269 q 406 298 370 269 l 439 253 q 390 222 423 237 l 358 214 l 318 211 q 219 243 264 207 q 175 342 175 279 q 272 504 175 432 l 390 591 q 457 643 430 622 q 494 677 484 664 q 543 794 543 734 q 479 914 543 872 q 342 950 422 950 q 195 897 258 950 q 117 798 157 867 l 64 821 m 262 45 q 311 93 262 85 q 359 45 351 94 q 311 -4 359 -4 q 262 45 271 -4 z "},"@":{"ha":827,"x_min":47,"x_max":783,"o":"m 47 273 q 154 528 47 425 q 415 631 261 631 q 672 536 565 631 q 783 290 783 438 q 750 146 783 204 q 628 74 709 74 q 559 103 585 74 q 536 153 540 127 q 379 74 492 73 q 257 122 300 74 q 215 252 216 170 q 269 387 215 334 q 407 441 325 441 q 550 358 513 441 l 555 433 l 590 433 l 572 207 q 589 132 568 161 q 633 111 606 111 q 720 172 685 111 q 747 290 747 218 q 647 510 747 422 q 415 595 553 595 q 180 501 275 595 q 83 273 83 410 q 176 39 83 126 q 416 -50 269 -50 q 534 -33 472 -50 q 640 28 606 -11 l 667 1 q 567 -60 635 -35 q 414 -86 500 -86 q 139 25 237 -86 q 47 273 47 125 m 253 252 q 379 111 253 111 q 490 155 451 111 q 532 272 532 201 q 498 368 532 331 q 407 406 465 406 q 297 359 343 406 q 253 252 252 315 z "},"A":{"ha":879,"x_min":43,"x_max":836,"o":"m 43 0 l 439 1023 l 836 0 l 779 0 l 439 879 l 98 0 l 43 0 z "},"B":{"ha":776,"x_min":106,"x_max":726,"o":"m 106 0 l 106 991 l 347 991 q 530 932 463 991 q 603 754 602 868 q 496 562 603 623 q 664 468 600 541 q 726 288 726 395 q 636 81 726 160 q 415 0 546 0 l 106 0 m 161 57 l 416 57 q 596 121 522 57 q 671 288 671 184 q 595 456 671 392 q 416 517 524 517 l 161 517 l 161 57 m 161 574 l 359 574 q 493 624 440 574 q 546 754 546 673 q 490 885 546 838 q 353 935 434 935 q 351 935 352 935 l 161 935 l 161 574 z "},"C":{"ha":975,"x_min":69,"x_max":928,"o":"m 69 496 q 211 863 69 721 q 579 1006 354 1006 q 810 968 707 1006 q 928 900 871 944 l 928 829 q 800 907 869 878 q 579 950 694 949 q 254 822 382 950 q 126 496 126 694 q 253 171 126 297 q 579 43 380 43 q 794 87 703 43 q 928 172 847 114 l 928 107 l 861 58 q 650 -11 783 1 q 616 -13 634 -12 q 579 -14 599 -14 q 212 127 354 -14 q 69 496 69 271 z "},"D":{"ha":956,"x_min":106,"x_max":879,"o":"m 106 0 l 106 991 l 436 991 q 761 842 636 991 q 879 497 879 701 q 762 150 879 292 q 436 0 637 0 l 106 0 m 161 57 l 436 57 q 701 171 589 57 q 822 497 822 293 q 721 803 822 679 q 438 936 613 936 q 436 936 437 936 l 161 936 l 161 57 z "},"E":{"ha":656,"x_min":98,"x_max":575,"o":"m 98 0 l 98 991 l 575 991 l 575 935 l 155 935 l 155 574 l 575 574 l 575 513 l 155 513 l 155 57 l 575 57 l 575 0 l 98 0 z "},"F":{"ha":601,"x_min":106,"x_max":536,"o":"m 106 0 l 106 991 l 536 991 l 536 935 l 161 935 l 161 574 l 536 574 l 536 517 l 161 517 l 161 0 l 106 0 z "},"G":{"ha":1141,"x_min":69,"x_max":1090,"o":"m 69 496 q 212 861 69 718 q 579 1006 357 1006 q 999 802 846 1006 l 953 766 q 579 950 819 949 q 254 821 383 950 q 125 496 125 692 q 253 171 125 298 q 579 43 384 43 q 917 183 789 43 q 1028 422 1014 289 l 700 422 l 700 479 l 1090 479 q 958 138 1090 277 q 579 -14 815 -14 q 212 127 354 -14 q 69 496 69 271 z "},"H":{"ha":854,"x_min":106,"x_max":764,"o":"m 106 0 l 106 991 l 161 991 l 161 574 l 707 574 l 707 991 l 764 991 l 764 0 l 707 0 l 707 517 l 161 517 l 161 0 l 106 0 z "},"I":{"ha":267,"x_min":107,"x_max":163,"o":"m 107 0 l 107 991 l 163 991 l 163 0 l 107 0 z "},"J":{"ha":437,"x_min":41,"x_max":354,"o":"m 41 79 l 90 110 q 193 46 125 46 q 297 200 298 46 l 297 991 l 354 991 l 354 197 q 195 -11 354 -11 q 41 79 90 -11 z "},"K":{"ha":728,"x_min":92,"x_max":714,"o":"m 92 0 l 92 991 l 149 991 l 149 551 l 591 991 l 672 991 l 197 518 l 714 0 l 635 0 l 157 479 l 149 471 l 149 0 l 92 0 z "},"L":{"ha":494,"x_min":106,"x_max":440,"o":"m 106 0 l 106 991 l 161 991 l 161 57 l 440 57 l 440 0 l 106 0 z "},"M":{"ha":1253,"x_min":32,"x_max":1223,"o":"m 32 0 l 290 1021 l 628 136 l 965 1022 l 1223 0 l 1165 0 l 954 833 l 628 -25 l 301 835 l 89 0 l 32 0 z "},"N":{"ha":993,"x_min":107,"x_max":904,"o":"m 107 0 l 107 999 l 847 131 l 847 991 l 904 991 l 904 -17 l 163 842 l 163 0 l 107 0 z "},"O":{"ha":1141,"x_min":69,"x_max":1090,"o":"m 69 496 q 212 863 69 721 q 579 1006 354 1006 q 947 863 803 1006 q 1090 496 1090 721 q 947 129 1090 271 q 579 -14 803 -14 q 212 129 354 -14 q 69 496 69 271 m 126 496 q 254 170 126 297 q 579 43 382 43 q 906 170 779 43 q 1034 496 1034 297 q 906 822 1034 694 q 579 950 779 950 q 254 822 382 950 q 126 496 126 694 z "},"P":{"ha":680,"x_min":106,"x_max":616,"o":"m 106 0 l 106 991 l 347 991 q 539 925 461 991 q 616 746 616 859 q 539 566 616 632 q 347 496 461 496 l 161 496 l 161 0 l 106 0 m 161 553 l 346 553 q 498 603 437 553 q 559 746 559 656 q 496 888 559 836 q 349 935 439 935 q 346 935 347 935 l 161 935 l 161 553 z "},"Q":{"ha":1141,"x_min":81,"x_max":1101,"o":"m 81 496 q 222 863 81 721 q 590 1006 366 1006 q 958 864 814 1006 q 1101 496 1101 721 q 958 129 1101 271 q 592 -14 816 -14 q 590 -14 591 -14 q 224 127 365 -14 q 81 496 81 271 m 138 496 q 264 171 138 297 q 590 43 391 43 q 918 168 790 43 q 1044 496 1044 294 q 918 822 1044 696 q 590 950 791 949 q 265 822 390 950 q 138 496 138 694 m 591 -77 l 885 -77 l 885 -134 l 591 -134 l 591 -77 z "},"R":{"ha":672,"x_min":106,"x_max":650,"o":"m 106 0 l 106 991 l 335 991 q 440 976 391 991 q 526 928 490 960 q 584 851 562 897 q 606 746 606 806 q 586 633 606 681 q 529 555 566 586 q 442 510 492 525 q 332 496 392 496 l 650 0 l 583 0 l 268 496 l 161 496 l 161 0 l 106 0 m 161 553 l 349 553 q 492 603 437 553 q 547 747 547 653 q 531 830 547 795 q 485 888 514 865 q 417 923 456 911 q 334 935 378 935 l 161 935 l 161 553 z "},"S":{"ha":691,"x_min":110,"x_max":636,"o":"m 110 768 q 183 933 110 871 q 361 997 255 997 q 608 867 536 997 l 554 843 q 488 911 526 889 q 361 942 439 941 q 225 896 279 942 q 167 768 167 847 q 228 644 167 698 q 367 570 262 616 q 479 512 432 541 q 555 454 526 484 q 636 257 636 375 q 476 8 636 68 q 353 -11 424 -11 q 349 -11 351 -11 l 349 46 q 517 98 456 46 q 579 257 579 153 q 505 421 579 355 q 446 461 486 439 q 343 511 406 484 q 182 603 225 564 q 110 768 110 665 z "},"T":{"ha":612,"x_min":62,"x_max":558,"o":"m 62 935 l 62 991 l 558 991 l 558 935 l 339 935 l 339 0 l 282 0 l 282 935 l 62 935 z "},"U":{"ha":770,"x_min":106,"x_max":681,"o":"m 106 248 l 106 991 l 161 991 l 161 248 q 231 97 161 152 q 389 47 294 47 q 392 47 391 47 q 553 98 488 47 q 624 248 623 154 l 624 991 l 681 991 l 681 248 q 593 54 681 127 q 392 -9 516 -9 q 191 56 271 -9 q 106 248 106 126 z "},"V":{"ha":730,"x_min":-26,"x_max":766,"o":"m -26 991 l 29 991 l 370 113 l 710 991 l 766 991 l 370 -32 l -26 991 z "},"W":{"ha":1217,"x_min":47,"x_max":1182,"o":"m 47 991 l 103 991 l 363 180 l 614 1010 l 864 180 l 1124 991 l 1182 991 l 861 -14 l 614 818 l 366 -14 l 47 991 z "},"X":{"ha":736,"x_min":46,"x_max":700,"o":"m 46 0 l 338 513 l 62 991 l 127 991 l 372 562 l 618 991 l 684 991 l 408 509 l 700 0 l 635 0 l 371 460 l 110 0 l 46 0 z "},"Y":{"ha":709,"x_min":46,"x_max":668,"o":"m 46 991 l 111 991 l 355 562 l 603 991 l 668 991 l 385 496 l 385 0 l 328 0 l 328 496 l 46 991 z "},"Z":{"ha":769,"x_min":54,"x_max":725,"o":"m 54 0 l 623 933 l 87 933 l 87 991 l 725 991 l 155 57 l 722 57 l 722 0 l 54 0 z "},"[":{"ha":297,"x_min":82,"x_max":236,"o":"m 82 -64 l 82 1048 l 232 1048 l 232 1000 l 139 1000 l 139 -17 l 236 -17 l 236 -64 l 82 -64 z "},"\\":{"ha":390,"x_min":32,"x_max":371,"o":"m 32 991 l 87 991 l 371 0 l 317 0 l 32 991 z "},"]":{"ha":297,"x_min":85,"x_max":239,"o":"m 85 -17 l 183 -17 l 183 1000 l 89 1000 l 89 1048 l 239 1048 l 239 -64 l 85 -64 l 85 -17 z "},"^":{"ha":488,"x_min":57,"x_max":439,"o":"m 57 524 l 225 914 l 271 914 l 439 524 l 401 524 l 249 810 l 93 524 l 57 524 z "},"_":{"ha":496,"x_min":0,"x_max":511,"o":"m 0 -244 l 511 -244 l 511 -294 l 0 -294 l 0 -244 z "},"`":{"ha":460,"x_min":126,"x_max":343,"o":"m 126 836 l 157 869 l 343 684 l 309 652 l 126 836 z "},"a":{"ha":708,"x_min":49,"x_max":631,"o":"m 49 286 q 134 496 49 411 q 345 582 220 582 q 574 473 482 582 l 574 574 l 631 574 l 631 0 l 574 0 l 574 98 q 347 -9 484 -9 q 345 -9 346 -9 q 135 75 220 -9 q 49 286 49 161 m 104 286 q 175 117 104 188 q 345 46 245 46 q 514 115 444 46 q 585 286 585 186 q 514 455 585 385 q 345 526 443 526 q 175 457 245 526 q 104 286 104 387 z "},"b":{"ha":718,"x_min":77,"x_max":664,"o":"m 77 0 l 77 1028 l 134 1028 l 134 467 q 368 582 224 582 q 578 497 493 582 q 664 286 664 411 q 579 77 664 161 q 368 -9 493 -9 q 134 106 225 -9 l 134 0 l 77 0 m 127 286 q 198 117 127 188 q 368 46 269 46 q 538 115 468 46 q 608 286 608 186 q 537 455 608 385 q 368 526 467 526 q 199 457 269 526 q 127 286 128 387 z "},"c":{"ha":608,"x_min":65,"x_max":538,"o":"m 65 286 q 150 498 65 414 q 363 583 235 583 q 538 533 473 583 l 538 465 l 501 489 l 463 510 q 366 528 412 528 q 363 528 365 528 q 189 461 256 528 q 121 286 121 393 q 189 113 121 180 q 363 45 257 45 q 538 111 463 45 l 538 40 q 366 -11 460 -11 q 363 -11 364 -11 q 150 74 235 -11 q 65 286 65 158 z "},"d":{"ha":724,"x_min":60,"x_max":646,"o":"m 60 286 q 144 496 60 411 q 355 582 231 582 q 589 469 493 582 l 589 1028 l 646 1028 l 646 0 l 589 0 l 589 103 q 355 -9 497 -9 q 146 75 231 -9 q 60 286 60 161 m 115 286 q 186 117 115 188 q 355 46 257 46 q 525 115 455 46 q 596 286 596 186 q 525 455 596 385 q 355 526 454 526 q 186 457 256 526 q 115 286 115 387 z "},"e":{"ha":680,"x_min":47,"x_max":640,"o":"m 47 286 q 131 498 47 415 q 345 583 216 583 q 555 504 472 583 q 640 298 640 425 l 103 298 q 165 114 103 182 q 345 45 231 45 q 450 64 403 45 q 557 165 510 89 l 608 142 q 441 3 554 39 q 345 -11 399 -11 q 132 74 216 -11 q 47 286 47 159 m 111 353 l 576 353 q 494 481 563 432 q 347 528 430 528 q 345 528 346 528 q 111 353 167 528 z "},"f":{"ha":376,"x_min":60,"x_max":347,"o":"m 60 517 l 60 574 l 138 574 l 138 900 q 271 1032 138 1032 q 310 1029 301 1032 q 347 1019 327 1029 l 347 962 l 310 971 l 272 975 q 195 884 194 975 l 195 574 l 330 574 l 330 517 l 195 517 l 195 0 l 138 0 l 138 517 l 60 517 z "},"g":{"ha":708,"x_min":49,"x_max":631,"o":"m 49 286 q 134 496 49 411 q 345 582 220 582 q 574 473 482 582 l 574 574 l 631 574 l 631 12 q 553 -192 631 -114 q 349 -269 475 -269 q 68 -85 114 -269 l 125 -85 q 212 -186 140 -153 q 349 -212 269 -212 q 514 -153 456 -212 q 574 14 574 -93 l 574 98 q 347 -9 484 -9 q 345 -9 345 -9 q 135 75 220 -9 q 49 286 49 161 m 104 286 q 175 117 104 188 q 345 46 245 46 q 514 115 444 46 q 585 286 585 186 q 514 455 585 385 q 345 526 443 526 q 175 457 245 526 q 104 286 104 387 z "},"h":{"ha":633,"x_min":103,"x_max":557,"o":"m 103 0 l 103 1028 l 160 1028 l 160 497 q 330 582 212 582 q 557 350 557 582 l 557 -1 l 500 -1 l 500 345 q 330 526 500 526 q 211 485 261 526 q 160 374 159 444 l 160 0 l 103 0 z "},"i":{"ha":255,"x_min":85,"x_max":176,"o":"m 85 722 q 131 768 85 760 q 176 722 165 768 q 131 676 176 676 q 98 689 115 676 q 85 722 86 701 m 102 0 l 102 574 l 158 574 l 158 0 l 102 0 z "},"j":{"ha":256,"x_min":85,"x_max":176,"o":"m 85 722 q 131 768 85 760 q 176 722 165 768 q 131 676 176 676 q 98 689 115 676 q 85 722 86 701 m 103 -250 l 103 574 l 160 574 l 160 -250 l 103 -250 z "},"k":{"ha":579,"x_min":93,"x_max":557,"o":"m 93 0 l 93 1028 l 150 1028 l 150 349 l 399 596 l 479 596 l 220 338 l 557 0 l 482 0 l 182 298 l 150 267 l 150 0 l 93 0 z "},"l":{"ha":267,"x_min":107,"x_max":163,"o":"m 107 0 l 107 1028 l 163 1028 l 163 0 l 107 0 z "},"m":{"ha":892,"x_min":92,"x_max":802,"o":"m 92 0 l 92 574 l 149 574 l 149 517 q 283 582 190 582 q 447 492 395 582 q 610 582 497 582 q 749 533 696 582 q 802 396 802 483 l 802 0 l 745 0 l 745 396 q 710 488 745 449 q 610 526 675 526 q 475 396 475 526 l 475 0 l 418 0 l 418 396 q 379 489 418 454 q 283 526 339 526 q 187 490 227 526 q 149 396 149 456 l 149 0 l 92 0 z "},"n":{"ha":626,"x_min":92,"x_max":534,"o":"m 92 0 l 92 574 l 149 574 l 149 504 q 314 581 187 581 q 478 519 421 581 q 534 349 534 458 l 534 0 l 478 0 l 478 343 q 314 525 478 525 q 192 478 233 525 q 149 349 149 431 l 149 0 l 92 0 z "},"o":{"ha":691,"x_min":49,"x_max":640,"o":"m 49 286 q 135 496 49 410 q 345 583 220 583 q 554 497 468 583 q 640 286 640 411 q 555 77 640 161 q 345 -9 469 -9 q 135 75 220 -9 q 49 286 49 161 m 104 286 q 175 117 104 188 q 345 46 245 46 q 514 115 444 46 q 585 286 585 186 q 515 457 585 388 q 345 528 446 528 q 176 456 248 528 q 104 286 104 384 z "},"p":{"ha":712,"x_min":89,"x_max":677,"o":"m 89 -269 l 89 574 l 146 574 l 146 465 q 382 582 235 582 q 591 497 507 582 q 677 286 677 411 q 593 77 677 161 q 382 -9 507 -9 q 146 107 239 -9 l 146 -269 l 89 -269 m 142 286 q 213 117 142 188 q 382 46 283 46 q 551 115 481 46 q 623 286 623 186 q 552 455 623 385 q 382 526 481 526 q 212 457 282 526 q 142 286 142 387 z "},"q":{"ha":697,"x_min":41,"x_max":628,"o":"m 41 286 q 126 496 41 411 q 338 582 212 582 q 571 469 477 582 l 571 574 l 628 574 l 628 -269 l 571 -269 l 571 103 q 338 -9 479 -9 q 127 75 213 -9 q 41 286 41 161 m 97 286 q 168 117 97 188 q 338 46 239 46 q 507 115 437 46 q 578 286 578 186 q 507 455 578 385 q 338 526 436 526 q 168 457 238 526 q 97 286 98 387 z "},"r":{"ha":430,"x_min":92,"x_max":393,"o":"m 92 0 l 92 574 l 149 574 l 149 496 q 196 554 167 528 q 260 581 225 581 q 330 571 302 581 q 393 536 358 561 l 363 489 q 315 515 340 506 q 262 525 290 525 q 218 510 239 525 q 182 474 197 496 q 158 427 167 453 q 149 378 149 400 l 149 0 l 92 0 z "},"s":{"ha":459,"x_min":40,"x_max":428,"o":"m 40 110 l 89 139 q 146 72 113 96 q 237 46 180 46 q 240 46 239 46 q 371 157 371 46 q 325 241 371 205 q 286 260 311 250 q 222 285 260 271 q 122 335 153 310 q 78 437 78 370 q 122 539 78 497 q 235 582 165 582 q 397 515 330 582 l 355 479 q 237 526 309 526 q 235 526 235 526 q 135 439 135 526 q 165 375 135 400 q 244 338 191 355 q 322 306 292 321 q 368 281 353 292 q 428 157 428 235 q 374 36 428 81 q 242 -11 319 -11 q 240 -11 241 -11 q 40 110 106 -11 z "},"t":{"ha":347,"x_min":43,"x_max":311,"o":"m 43 517 l 43 574 l 121 574 l 121 825 l 178 825 l 178 574 l 311 574 l 311 517 l 178 517 l 178 0 l 121 0 l 121 517 l 43 517 z "},"u":{"ha":595,"x_min":85,"x_max":513,"o":"m 85 215 l 85 574 l 142 574 l 142 215 q 178 89 142 133 q 294 45 214 45 q 297 45 296 45 q 457 215 457 45 l 457 574 l 513 574 l 513 215 q 457 50 513 109 q 297 -11 400 -11 q 140 49 195 -11 q 85 215 85 109 z "},"v":{"ha":604,"x_min":37,"x_max":581,"o":"m 37 574 l 98 574 l 307 117 l 517 574 l 581 574 l 309 -25 l 37 574 z "},"w":{"ha":949,"x_min":40,"x_max":918,"o":"m 40 574 l 102 574 l 294 129 l 479 591 l 663 131 l 854 574 l 918 574 l 659 -25 l 479 433 l 297 -25 l 40 574 z "},"x":{"ha":501,"x_min":22,"x_max":482,"o":"m 22 0 l 218 289 l 26 574 l 93 574 l 253 336 l 411 574 l 478 574 l 288 290 l 482 0 l 415 0 l 253 240 l 90 0 l 22 0 z "},"y":{"ha":618,"x_min":39,"x_max":587,"o":"m 39 574 l 100 574 l 314 121 l 525 574 l 587 574 l 196 -269 l 132 -269 l 281 53 l 39 574 z "},"z":{"ha":634,"x_min":64,"x_max":589,"o":"m 64 0 l 473 519 l 87 519 l 87 574 l 589 574 l 182 57 l 582 57 l 582 0 l 64 0 z "},"{":{"ha":268,"x_min":11,"x_max":248,"o":"m 11 493 q 74 618 73 543 l 74 872 q 113 1003 74 965 q 245 1042 151 1042 l 245 990 q 153 964 179 990 q 125 872 125 936 l 125 618 q 68 493 125 541 q 107 435 90 471 q 125 368 125 400 l 125 92 q 151 3 125 24 q 248 -20 178 -20 l 248 -71 q 114 -37 153 -71 q 74 89 74 -4 l 74 368 q 53 441 74 401 q 11 493 43 461 z "},"|":{"ha":184,"x_min":75,"x_max":123,"o":"m 75 -64 l 75 1048 l 123 1048 l 123 -64 l 75 -64 z "},"}":{"ha":268,"x_min":21,"x_max":257,"o":"m 21 -20 q 117 1 89 -20 q 143 92 143 24 l 143 368 q 200 493 143 432 q 158 546 174 515 q 143 618 143 576 l 143 872 q 115 964 143 936 q 22 990 89 990 l 22 1042 q 154 1001 114 1042 q 195 872 195 961 l 195 618 q 215 542 195 579 q 257 493 225 525 q 216 443 233 473 q 195 368 194 404 l 195 89 q 155 -37 195 -4 q 21 -71 115 -71 l 21 -20 z "},"~":{"ha":595,"x_min":41,"x_max":558,"o":"m 41 481 q 204 551 112 551 q 256 543 231 551 l 311 518 l 358 496 l 382 489 l 407 486 q 514 536 465 486 l 558 498 q 410 429 493 429 q 354 436 371 429 l 297 463 l 262 481 q 204 496 233 496 q 131 479 165 496 l 107 464 l 81 440 l 41 481 z "}," ":{"ha":354,"x_min":0,"x_max":0,"o":""},"¡":{"ha":283,"x_min":93,"x_max":193,"o":"m 93 844 q 143 895 93 886 q 178 879 163 895 q 193 844 189 868 q 143 794 193 803 q 93 844 93 794 m 117 -103 l 117 684 l 172 684 l 172 -103 l 117 -103 z "},"¢":{"ha":587,"x_min":53,"x_max":515,"o":"m 53 488 q 119 681 53 603 q 301 774 187 760 l 301 843 l 359 843 l 359 775 q 443 760 406 775 q 515 720 484 747 l 515 652 l 479 675 l 443 696 q 359 715 397 715 l 359 262 q 513 319 430 262 l 513 256 q 446 222 488 239 l 404 212 l 359 208 l 359 127 l 301 127 l 301 210 q 115 306 191 210 q 53 488 53 382 m 114 488 q 164 339 114 399 q 301 264 216 278 l 301 714 q 165 639 218 702 q 114 488 114 575 z "},"£":{"ha":658,"x_min":54,"x_max":623,"o":"m 54 37 q 114 89 75 66 q 187 113 154 113 q 301 339 301 227 l 153 339 l 153 399 l 297 399 q 237 510 289 440 l 186 581 l 131 679 q 107 786 107 737 q 178 946 107 889 q 350 999 245 999 q 517 951 453 999 q 587 800 587 899 l 532 800 q 475 911 532 874 q 350 943 429 943 q 168 786 168 943 l 172 742 q 237 608 183 689 l 310 500 q 357 399 343 450 l 515 399 l 515 339 l 359 339 q 332 216 359 277 q 260 115 302 158 l 281 114 l 304 104 q 354 79 335 92 l 407 56 q 461 47 432 47 q 585 106 526 47 l 623 69 q 593 43 609 56 q 558 17 578 31 q 461 -8 513 -8 q 329 31 395 -8 q 290 47 308 43 l 258 56 l 227 58 q 147 41 191 60 q 90 -1 125 32 l 54 37 z "},"¥":{"ha":713,"x_min":46,"x_max":668,"o":"m 46 991 l 111 991 l 355 561 l 603 991 l 668 991 l 389 503 l 526 503 l 526 446 l 385 446 l 385 383 l 526 383 l 526 326 l 385 326 l 385 0 l 328 0 l 328 326 l 187 326 l 187 383 l 328 383 l 328 446 l 187 446 l 187 503 l 323 503 l 46 991 z "},"¦":{"ha":184,"x_min":75,"x_max":123,"o":"m 75 0 l 75 454 l 123 454 l 123 0 l 75 0 m 75 606 l 75 1048 l 123 1048 l 123 606 l 75 606 z "},"§":{"ha":528,"x_min":52,"x_max":481,"o":"m 52 479 q 96 616 52 564 q 179 677 119 646 q 81 838 81 734 q 131 962 81 914 q 258 1011 184 1011 q 436 895 378 1011 l 395 867 q 258 958 345 958 q 174 925 208 958 q 139 840 139 890 q 267 705 139 726 q 481 484 481 671 q 361 292 481 361 q 456 111 455 239 q 400 -20 456 28 q 258 -68 343 -68 q 139 -32 188 -68 q 65 69 90 4 l 117 93 q 167 17 135 48 q 258 -14 197 -14 q 354 20 317 -14 q 393 111 393 53 q 245 271 393 253 q 109 339 163 281 q 52 479 52 399 m 115 486 q 160 381 115 421 q 267 340 204 340 q 375 376 332 340 q 418 479 418 414 q 256 632 418 632 q 154 590 193 632 q 115 486 115 550 z "},"¨":{"ha":595,"x_min":164,"x_max":446,"o":"m 164 722 q 210 768 164 760 q 256 722 245 768 q 210 676 256 676 q 178 689 194 676 q 164 722 165 701 m 354 722 q 400 768 354 760 q 446 722 435 768 q 400 676 446 676 q 368 689 385 676 q 354 722 356 701 z "},"©":{"ha":817,"x_min":47,"x_max":778,"o":"m 47 541 q 153 799 47 693 q 412 905 260 906 q 671 800 562 905 q 778 541 778 693 q 672 282 778 391 q 412 175 565 175 q 154 281 260 175 q 47 541 47 388 m 77 542 q 174 302 77 400 q 414 204 272 204 q 653 301 555 204 q 751 542 751 400 q 654 781 751 684 q 414 879 556 879 q 175 782 272 879 q 77 542 77 684 m 232 547 q 283 668 232 625 q 412 714 335 714 q 493 700 465 714 l 517 689 l 545 672 l 545 639 l 519 656 l 492 669 q 453 682 471 680 l 412 686 q 304 648 347 686 q 260 547 260 611 q 298 449 260 489 q 412 407 337 408 q 545 461 496 407 l 545 428 q 412 379 496 379 q 285 425 336 379 q 232 547 232 474 z "},"ª":{"ha":517,"x_min":69,"x_max":464,"o":"m 69 467 l 69 507 l 464 507 l 464 467 l 69 467 m 81 761 q 131 888 81 835 q 257 939 182 939 q 395 873 342 939 l 395 933 l 429 933 l 429 589 l 395 589 l 395 648 q 257 583 345 583 q 132 635 182 583 q 81 761 81 686 m 114 761 q 155 660 114 703 q 257 616 198 617 q 358 660 315 616 q 401 761 401 703 q 358 862 401 819 q 257 905 315 905 q 157 863 199 905 q 114 761 114 820 z "},"«":{"ha":610,"x_min":53,"x_max":545,"o":"m 53 354 l 315 616 l 343 587 l 110 354 l 338 126 l 309 97 l 53 354 m 254 354 l 515 616 l 545 587 l 310 354 l 539 126 l 510 97 l 254 354 z "},"¬":{"ha":544,"x_min":89,"x_max":441,"o":"m 89 492 l 89 528 l 441 528 l 441 492 l 89 492 m 139 114 q 222 232 139 200 q 174 271 192 241 q 154 335 154 302 q 186 417 154 385 q 269 449 218 449 q 351 417 319 449 q 383 335 383 385 q 366 272 383 300 q 314 232 345 237 q 400 114 400 200 q 364 22 400 58 q 269 -12 328 -12 q 174 24 210 -12 q 139 114 139 58 m 164 114 q 195 41 164 68 q 269 12 225 12 q 345 41 312 12 q 375 114 375 71 q 345 188 375 157 q 269 218 314 218 q 196 187 227 218 q 164 114 164 155 m 179 335 q 205 272 179 298 q 269 245 232 245 q 332 271 307 245 q 358 335 358 298 q 334 397 358 372 q 269 424 307 424 q 205 399 232 424 q 179 335 179 372 m 184 1003 l 201 1029 l 285 1029 l 285 582 l 260 582 l 260 1003 l 184 1003 z "},"­":{"ha":376,"x_min":25,"x_max":318,"o":"m 25 339 l 25 396 l 318 396 l 318 339 l 25 339 z "},"®":{"ha":554,"x_min":57,"x_max":496,"o":"m 57 749 q 121 904 57 840 q 277 968 184 968 q 432 904 368 968 q 496 749 496 840 q 432 593 496 657 q 277 529 368 529 q 121 593 185 529 q 57 749 57 657 m 78 749 q 138 610 78 669 q 277 550 197 550 q 415 610 356 550 q 475 749 475 669 q 415 888 475 828 q 277 947 355 947 q 138 888 197 947 q 78 749 78 828 m 200 628 l 200 880 l 297 880 q 347 863 329 880 q 368 812 368 843 q 297 745 368 745 l 286 745 l 368 628 l 343 628 l 262 745 l 220 745 l 220 628 l 200 628 m 220 764 l 298 764 q 349 812 349 764 q 298 861 349 861 l 220 861 l 220 764 z "},"¯":{"ha":545,"x_min":79,"x_max":475,"o":"m 79 659 l 79 708 l 475 708 l 475 659 l 79 659 z "},"°":{"ha":294,"x_min":32,"x_max":262,"o":"m 32 854 q 67 935 32 901 q 147 970 102 970 q 228 935 193 970 q 262 854 262 901 q 228 774 262 808 q 147 739 193 739 q 66 774 101 739 q 32 854 32 808 m 61 856 q 87 796 61 823 q 147 770 114 770 q 207 796 180 770 q 233 856 233 823 q 207 916 233 889 q 147 942 180 942 q 87 916 114 942 q 61 856 61 889 z "},"±":{"ha":538,"x_min":93,"x_max":450,"o":"m 93 197 l 93 254 l 450 254 l 450 197 l 93 197 m 93 449 l 93 505 l 235 505 l 235 647 l 298 647 l 298 505 l 440 505 l 440 449 l 298 449 l 298 307 l 235 307 l 235 449 l 93 449 z "},"²":{"ha":544,"x_min":142,"x_max":412,"o":"m 142 581 l 359 833 q 386 911 386 873 q 354 978 386 949 q 282 1006 322 1006 q 179 925 205 1006 l 151 925 q 196 1000 158 972 q 282 1031 235 1031 q 374 997 334 1031 q 412 911 412 964 q 386 823 412 868 q 326 751 375 806 l 197 606 l 411 606 l 411 581 l 142 581 z "},"³":{"ha":544,"x_min":154,"x_max":404,"o":"m 154 677 l 182 677 q 215 629 190 652 q 277 606 241 606 q 347 633 317 606 q 376 704 376 663 q 340 783 376 755 q 313 800 325 795 l 283 806 l 257 806 l 257 842 l 283 842 q 347 865 323 842 l 364 892 l 370 926 q 345 989 370 965 q 281 1014 319 1014 q 191 935 203 1014 l 161 935 q 199 1011 165 985 q 281 1040 232 1040 q 366 1010 331 1040 q 400 926 400 979 q 317 823 400 846 q 404 704 404 798 q 368 615 404 648 q 277 581 334 581 q 154 677 181 581 z "},"´":{"ha":566,"x_min":216,"x_max":435,"o":"m 216 685 l 401 869 l 435 836 l 250 652 l 216 685 z "},"µ":{"ha":1090,"x_min":85,"x_max":971,"o":"m 85 0 l 571 562 q 629 736 629 646 q 559 885 629 823 q 399 945 490 945 q 222 872 286 945 q 168 765 184 829 l 106 765 q 178 908 115 837 q 399 1000 261 1000 q 602 926 517 1000 q 686 736 686 854 q 596 498 686 615 q 558 453 584 483 q 494 379 533 424 l 210 57 l 685 57 l 685 0 l 85 0 m 240 618 q 275 699 240 664 q 355 733 310 733 q 436 699 401 733 q 471 618 471 664 q 436 537 471 572 q 355 503 401 503 q 275 537 309 503 q 240 618 240 572 m 269 619 q 296 559 269 586 q 355 533 322 533 q 415 559 389 533 q 441 619 441 586 q 415 679 441 652 q 355 705 389 705 q 296 679 322 705 q 269 619 269 653 m 339 596 q 348 617 339 608 q 370 627 357 627 q 391 617 382 627 q 400 596 400 608 q 391 575 400 584 q 370 566 382 566 q 348 575 357 566 q 339 596 339 584 m 515 -179 l 545 -146 q 671 -200 599 -200 q 789 -149 737 -200 l 814 -179 q 665 -240 761 -240 q 515 -179 572 -240 m 741 618 q 775 699 741 664 q 856 733 810 733 q 937 699 902 733 q 971 618 971 664 q 936 537 971 572 q 856 503 901 503 q 775 537 810 503 q 741 618 741 572 m 770 619 q 796 559 770 586 q 856 533 822 533 q 916 559 889 533 q 942 619 942 586 q 916 679 942 652 q 856 705 889 705 q 796 679 823 705 q 770 619 770 653 m 840 591 q 849 613 840 604 q 871 623 859 623 q 892 613 883 623 q 901 591 901 604 q 892 570 901 579 q 871 561 884 561 q 849 570 859 561 q 840 591 840 579 z "},"¶":{"ha":701,"x_min":68,"x_max":619,"o":"m 68 743 q 147 925 68 854 q 338 991 222 991 l 488 991 l 488 -85 l 431 -85 l 431 496 l 338 496 q 144 563 221 496 q 68 743 68 629 m 562 -85 l 562 991 l 619 991 l 619 -85 l 562 -85 z "},"·":{"ha":383,"x_min":96,"x_max":187,"o":"m 96 450 q 142 496 96 488 q 187 450 176 496 q 142 404 187 404 q 110 416 126 404 q 96 450 98 429 z "},"¸":{"ha":361,"x_min":100,"x_max":271,"o":"m 100 -119 q 113 -130 105 -125 q 131 -140 121 -135 l 164 -150 q 203 -117 203 -150 q 153 -68 203 -87 l 175 0 l 237 0 l 218 -57 q 271 -131 271 -74 q 249 -188 271 -165 q 191 -210 227 -210 q 100 -175 139 -210 l 100 -119 z "},"¹":{"ha":544,"x_min":204,"x_max":304,"o":"m 204 1003 l 221 1029 l 304 1029 l 304 582 l 279 582 l 279 1003 l 204 1003 z "},"º":{"ha":517,"x_min":64,"x_max":456,"o":"m 64 467 l 64 507 l 456 507 l 456 467 l 64 467 m 82 766 q 133 893 82 842 q 260 945 184 945 q 386 893 335 945 q 437 766 437 842 q 386 640 437 691 q 260 589 335 589 q 133 640 184 589 q 82 766 82 692 m 115 766 q 158 665 115 708 q 260 623 201 623 q 361 665 318 623 q 404 766 404 708 q 361 868 404 825 q 260 911 318 911 q 158 868 201 911 q 115 766 115 825 z "},"»":{"ha":610,"x_min":75,"x_max":574,"o":"m 75 587 l 103 616 l 366 354 l 110 97 l 81 126 l 309 354 l 75 587 m 283 587 l 311 616 l 574 354 l 318 97 l 289 126 l 517 354 l 283 587 z "},"¼":{"ha":544,"x_min":106,"x_max":463,"o":"m 106 83 l 361 452 l 361 109 l 400 109 l 400 83 l 361 83 l 361 -1 l 335 -1 l 335 83 l 106 83 m 110 492 l 110 528 l 463 528 l 463 492 l 110 492 m 151 109 l 335 109 l 335 368 l 151 109 m 204 1003 l 221 1029 l 304 1029 l 304 582 l 279 582 l 279 1003 l 204 1003 z "},"½":{"ha":544,"x_min":113,"x_max":465,"o":"m 113 492 l 113 528 l 465 528 l 465 492 l 113 492 m 147 0 l 366 253 q 392 330 392 293 q 360 397 392 369 q 288 425 328 425 q 184 345 211 425 l 157 345 q 201 419 163 392 q 288 450 240 450 q 379 416 339 450 q 418 330 418 383 q 392 243 418 288 q 332 171 381 226 l 203 25 l 416 25 l 416 0 l 147 0 m 212 1003 l 229 1029 l 313 1029 l 313 582 l 288 582 l 288 1003 l 212 1003 z "},"¾":{"ha":544,"x_min":100,"x_max":454,"o":"m 100 492 l 100 528 l 454 528 l 454 492 l 100 492 m 111 83 l 367 452 l 367 109 l 406 109 l 406 83 l 367 83 l 367 -1 l 340 -1 l 340 83 l 111 83 m 154 677 l 182 677 q 215 629 190 652 q 277 606 241 606 q 347 633 317 606 q 376 704 376 663 q 340 783 376 755 q 313 800 325 795 l 283 806 l 257 806 l 257 842 l 283 842 q 347 865 323 842 l 364 892 l 370 926 q 345 989 370 965 q 281 1014 319 1014 q 191 935 203 1014 l 161 935 q 199 1011 165 985 q 281 1040 232 1040 q 366 1010 331 1040 q 400 926 400 979 q 317 823 400 846 q 404 704 404 798 q 368 615 404 648 q 277 581 334 581 q 154 677 181 581 m 157 109 l 340 109 l 340 368 l 157 109 z "},"¿":{"ha":651,"x_min":52,"x_max":587,"o":"m 52 100 q 114 256 52 184 q 150 288 121 265 q 229 346 179 310 l 346 431 q 415 553 415 481 q 392 606 415 586 q 334 625 368 625 q 283 618 300 625 q 245 596 264 614 l 212 642 q 334 684 254 683 q 435 648 393 684 q 476 553 476 612 q 379 390 476 463 l 261 302 q 195 251 221 272 q 157 216 168 231 q 109 100 108 159 q 174 -20 109 22 q 310 -56 229 -56 q 457 -3 393 -56 q 496 39 477 14 q 534 97 515 64 l 587 74 q 310 -111 511 -111 q 129 -62 196 -111 q 52 100 51 -8 m 292 850 q 340 899 292 890 q 389 850 380 899 q 340 802 389 810 q 292 850 300 802 z "},"À":{"ha":879,"x_min":43,"x_max":836,"o":"m 43 0 l 439 1023 l 836 0 l 779 0 l 665 297 l 214 297 l 98 0 l 43 0 m 236 354 l 642 354 l 439 879 l 236 354 m 281 1210 l 309 1240 l 476 1072 l 444 1044 l 281 1210 z "},"Á":{"ha":879,"x_min":43,"x_max":836,"o":"m 43 0 l 439 1023 l 836 0 l 779 0 l 665 297 l 214 297 l 98 0 l 43 0 m 236 354 l 642 354 l 439 879 l 236 354 m 410 1074 l 564 1229 l 591 1202 l 436 1047 l 410 1074 z "},"Â":{"ha":879,"x_min":43,"x_max":836,"o":"m 43 0 l 439 1023 l 836 0 l 779 0 l 665 297 l 214 297 l 98 0 l 43 0 m 236 354 l 642 354 l 439 879 l 236 354 m 273 1051 l 441 1219 l 610 1051 l 581 1022 l 441 1160 l 302 1022 l 273 1051 z "},"Ã":{"ha":872,"x_min":43,"x_max":836,"o":"m 43 0 l 439 1023 l 836 0 l 779 0 l 665 297 l 214 297 l 98 0 l 43 0 m 215 1080 q 347 1152 254 1151 q 419 1137 382 1152 q 430 1132 425 1135 q 443 1125 436 1129 l 484 1108 l 532 1103 l 564 1103 l 581 1108 q 621 1141 591 1112 l 661 1111 l 635 1083 l 612 1065 q 538 1046 581 1046 q 431 1071 473 1046 l 390 1088 q 340 1096 370 1096 q 254 1050 289 1096 l 215 1080 m 236 354 l 642 354 l 439 879 l 236 354 z "},"Ä":{"ha":872,"x_min":43,"x_max":836,"o":"m 43 0 l 439 1023 l 836 0 l 779 0 l 665 297 l 214 297 l 98 0 l 43 0 m 236 354 l 642 354 l 439 879 l 236 354 m 293 1105 q 339 1152 293 1143 q 385 1105 374 1152 q 339 1060 385 1059 q 307 1072 323 1060 q 293 1105 295 1084 m 484 1105 q 529 1152 484 1143 q 575 1105 564 1152 q 529 1060 575 1059 q 497 1072 513 1060 q 484 1105 485 1084 z "},"Å":{"ha":879,"x_min":43,"x_max":836,"o":"m 43 0 l 439 1023 l 836 0 l 779 0 l 665 297 l 214 297 l 98 0 l 43 0 m 236 354 l 642 354 l 439 879 l 236 354 m 345 1129 q 372 1196 345 1168 q 439 1223 400 1223 q 505 1196 477 1223 q 533 1129 533 1168 q 506 1063 533 1090 q 439 1035 478 1035 q 372 1063 400 1035 q 345 1129 345 1090 m 370 1131 q 389 1080 370 1100 q 439 1060 407 1059 q 486 1082 465 1060 q 509 1131 509 1104 q 488 1179 509 1158 q 439 1200 467 1200 q 390 1181 410 1200 q 370 1131 369 1160 z "},"Æ":{"ha":1027,"x_min":40,"x_max":953,"o":"m 40 0 l 482 991 l 953 991 l 953 935 l 533 935 l 533 574 l 953 574 l 953 517 l 532 517 l 532 57 l 953 57 l 953 0 l 475 0 l 475 454 l 298 454 l 96 0 l 40 0 m 325 510 l 475 510 l 475 847 l 325 510 z "},"Ç":{"ha":975,"x_min":69,"x_max":928,"o":"m 69 496 q 211 863 69 721 q 579 1006 354 1006 q 810 968 707 1006 q 928 900 871 944 l 928 829 q 800 907 869 878 q 579 950 694 949 q 254 822 382 950 q 126 496 126 694 q 253 171 126 297 q 579 43 380 43 q 794 87 703 43 q 928 172 847 114 l 928 107 l 860 58 l 814 29 q 599 -14 722 -14 l 583 -53 q 627 -126 626 -83 q 542 -210 627 -210 q 447 -171 486 -210 l 469 -125 q 525 -151 492 -151 q 564 -118 564 -151 q 550 -86 564 -102 q 518 -65 536 -69 l 541 -14 q 203 139 351 -14 q 69 496 69 278 z "},"È":{"ha":656,"x_min":98,"x_max":575,"o":"m 98 0 l 98 991 l 575 991 l 575 935 l 155 935 l 155 574 l 575 574 l 575 513 l 155 513 l 155 57 l 575 57 l 575 0 l 98 0 m 172 1210 l 201 1240 l 368 1072 l 338 1044 l 172 1210 z "},"É":{"ha":656,"x_min":98,"x_max":575,"o":"m 98 0 l 98 991 l 575 991 l 575 935 l 155 935 l 155 574 l 575 574 l 575 513 l 155 513 l 155 57 l 575 57 l 575 0 l 98 0 m 307 1071 l 463 1232 l 492 1202 l 336 1047 l 307 1071 z "},"Ê":{"ha":656,"x_min":98,"x_max":575,"o":"m 98 0 l 98 991 l 575 991 l 575 935 l 155 935 l 155 574 l 575 574 l 575 513 l 155 513 l 155 57 l 575 57 l 575 0 l 98 0 m 175 1079 l 343 1247 l 510 1079 l 482 1050 l 343 1187 l 204 1050 l 175 1079 z "},"Ë":{"ha":656,"x_min":98,"x_max":575,"o":"m 98 0 l 98 991 l 575 991 l 575 935 l 155 935 l 155 574 l 575 574 l 575 513 l 155 513 l 155 57 l 575 57 l 575 0 l 98 0 m 199 1105 q 244 1152 199 1143 q 290 1105 279 1152 q 244 1060 290 1059 q 212 1072 229 1060 q 199 1105 200 1084 m 389 1105 q 435 1152 389 1143 q 481 1105 470 1152 q 435 1060 481 1059 q 403 1072 419 1060 q 389 1105 391 1084 z "},"Ì":{"ha":267,"x_min":-17,"x_max":179,"o":"m -17 1210 l 12 1240 l 179 1072 l 149 1044 l -17 1210 m 107 0 l 107 991 l 163 991 l 163 0 l 107 0 z "},"Í":{"ha":267,"x_min":97,"x_max":279,"o":"m 97 1074 l 253 1229 l 279 1202 l 125 1047 l 97 1074 m 107 0 l 107 991 l 163 991 l 163 0 l 107 0 z "},"Î":{"ha":267,"x_min":-36,"x_max":300,"o":"m -36 1051 l 134 1219 l 300 1051 l 272 1022 l 134 1160 l -5 1022 l -36 1051 m 107 0 l 107 991 l 163 991 l 163 0 l 107 0 z "},"Ï":{"ha":267,"x_min":-8,"x_max":273,"o":"m -8 1105 q 37 1152 -8 1143 q 83 1105 73 1152 q 37 1060 83 1059 q 5 1072 22 1060 q -8 1105 -7 1084 m 107 0 l 107 991 l 163 991 l 163 0 l 107 0 m 182 1105 q 228 1152 182 1143 q 273 1105 262 1152 q 228 1060 273 1059 q 196 1072 212 1060 q 182 1105 184 1084 z "},"Ð":{"ha":956,"x_min":45,"x_max":879,"o":"m 45 471 l 45 528 l 106 528 l 106 991 l 436 991 q 761 842 636 991 q 879 497 879 701 q 762 150 879 292 q 436 0 637 0 l 106 0 l 106 471 l 45 471 m 161 57 l 436 57 q 701 171 589 57 q 822 497 822 293 q 721 803 822 679 q 436 936 612 937 l 161 936 l 161 528 l 338 528 l 338 471 l 161 471 l 161 57 z "},"Ñ":{"ha":993,"x_min":107,"x_max":904,"o":"m 107 0 l 107 999 l 847 131 l 847 991 l 904 991 l 904 -17 l 163 842 l 163 0 l 107 0 m 278 1080 q 410 1152 317 1151 q 482 1137 444 1152 q 493 1132 488 1135 q 505 1125 498 1129 l 546 1108 l 595 1103 l 627 1103 l 643 1108 q 684 1141 654 1112 l 724 1111 l 697 1083 l 675 1065 q 600 1046 643 1046 q 493 1071 535 1046 l 453 1088 q 403 1096 433 1096 q 317 1050 351 1096 l 278 1080 z "},"Ò":{"ha":1141,"x_min":69,"x_max":1090,"o":"m 69 496 q 211 863 69 721 q 579 1006 354 1006 q 947 864 803 1006 q 1090 496 1090 721 q 947 129 1090 271 q 579 -14 804 -14 q 212 127 354 -14 q 69 496 69 271 m 126 496 q 253 171 126 297 q 579 43 380 43 q 907 168 779 43 q 1034 496 1034 294 q 907 822 1034 696 q 579 950 779 949 q 254 822 382 950 q 126 496 126 694 m 404 1210 l 432 1240 l 600 1072 l 568 1044 l 404 1210 z "},"Ó":{"ha":1141,"x_min":69,"x_max":1090,"o":"m 69 496 q 211 863 69 721 q 579 1006 354 1006 q 947 864 803 1006 q 1090 496 1090 721 q 947 129 1090 271 q 579 -14 804 -14 q 212 127 354 -14 q 69 496 69 271 m 126 496 q 253 171 126 297 q 579 43 380 43 q 907 168 779 43 q 1034 496 1034 294 q 907 822 1034 696 q 579 950 779 949 q 254 822 382 950 q 126 496 126 694 m 529 1074 l 684 1229 l 710 1202 l 555 1047 l 529 1074 z "},"Ô":{"ha":1141,"x_min":69,"x_max":1090,"o":"m 69 496 q 211 863 69 721 q 579 1006 354 1006 q 947 864 803 1006 q 1090 496 1090 721 q 947 129 1090 271 q 579 -14 804 -14 q 212 127 354 -14 q 69 496 69 271 m 126 496 q 253 171 126 297 q 579 43 380 43 q 907 168 779 43 q 1034 496 1034 294 q 907 822 1034 696 q 579 950 779 949 q 254 822 382 950 q 126 496 126 694 m 407 1086 l 575 1254 l 743 1086 l 714 1057 l 575 1194 l 436 1057 l 407 1086 z "},"Õ":{"ha":1141,"x_min":69,"x_max":1090,"o":"m 69 496 q 211 863 69 721 q 579 1006 354 1006 q 947 864 803 1006 q 1090 496 1090 721 q 947 129 1090 271 q 579 -14 804 -14 q 212 127 354 -14 q 69 496 69 271 m 126 496 q 253 171 126 297 q 579 43 380 43 q 907 168 779 43 q 1034 496 1034 294 q 907 822 1034 696 q 579 950 779 949 q 254 822 382 950 q 126 496 126 694 m 340 1097 q 472 1168 379 1168 q 545 1154 507 1168 q 555 1149 550 1152 q 568 1141 561 1146 l 608 1125 l 657 1120 l 689 1120 l 705 1125 q 746 1158 716 1129 l 786 1128 l 760 1100 l 737 1082 q 663 1063 705 1062 q 555 1088 597 1063 l 515 1104 q 465 1112 496 1112 q 379 1067 414 1112 l 340 1097 z "},"Ö":{"ha":1141,"x_min":69,"x_max":1090,"o":"m 69 496 q 211 863 69 721 q 579 1006 354 1006 q 947 864 803 1006 q 1090 496 1090 721 q 947 129 1090 271 q 579 -14 804 -14 q 212 127 354 -14 q 69 496 69 271 m 126 496 q 253 171 126 297 q 579 43 380 43 q 907 168 779 43 q 1034 496 1034 294 q 907 822 1034 696 q 579 950 779 949 q 254 822 382 950 q 126 496 126 694 m 433 1105 q 479 1152 433 1143 q 525 1105 514 1152 q 479 1060 525 1059 q 447 1072 464 1060 q 433 1105 435 1084 m 624 1105 q 669 1152 624 1143 q 715 1105 705 1152 q 669 1060 715 1059 q 637 1072 654 1060 q 624 1105 625 1084 z "},"×":{"ha":1308,"x_min":9,"x_max":1301,"o":"m 9 322 l 22 325 l 22 768 l 79 768 l 79 711 q 117 751 96 739 q 160 768 138 764 q 210 772 183 772 q 264 771 236 771 q 294 774 279 771 q 322 779 309 777 q 227 804 273 789 l 228 812 q 274 806 252 810 q 321 802 297 802 l 350 806 q 292 824 321 815 q 232 840 262 833 q 233 846 228 844 q 247 849 239 848 q 263 849 256 850 q 273 848 271 848 q 334 848 302 848 q 394 853 364 848 q 452 866 424 857 q 504 893 481 875 l 380 892 q 294 895 338 890 q 210 916 250 900 l 210 924 l 252 940 q 211 937 232 937 q 171 937 190 937 l 167 942 q 264 969 212 968 q 367 971 317 970 q 309 981 338 975 q 252 999 279 987 l 252 1007 l 322 1038 l 310 1038 l 187 1046 q 261 1050 223 1050 q 335 1053 298 1050 l 243 1063 l 243 1071 l 277 1068 l 225 1076 l 225 1084 q 285 1076 256 1080 q 345 1069 314 1071 l 347 1064 l 378 1059 q 430 1065 404 1059 q 481 1078 456 1071 q 413 1077 446 1080 q 345 1074 379 1074 q 322 1076 338 1074 q 300 1080 306 1078 l 335 1097 l 321 1101 l 293 1096 q 298 1117 292 1103 q 314 1148 304 1132 q 333 1180 323 1165 q 346 1202 342 1194 l 354 1196 l 306 1116 l 347 1103 l 323 1083 q 382 1085 353 1080 q 440 1088 411 1089 l 509 1084 l 510 1076 l 404 1054 l 401 1046 q 331 1031 364 1044 q 264 1003 297 1018 q 334 986 298 992 q 406 974 370 979 l 406 965 q 354 962 389 962 q 285 961 321 962 q 217 957 249 960 q 176 946 186 954 q 231 948 204 947 q 283 954 257 949 l 286 946 l 222 920 q 367 899 293 897 q 515 901 441 901 l 518 895 q 462 860 493 871 q 397 844 431 848 q 329 840 364 840 q 264 840 294 840 l 364 810 l 364 802 q 328 794 346 796 q 292 794 310 791 l 347 783 l 347 775 l 283 765 l 310 754 l 326 764 l 351 743 l 361 742 l 361 739 l 401 725 q 436 742 421 733 q 468 759 452 751 q 500 771 484 766 q 541 777 517 777 q 612 766 576 777 q 675 732 647 755 l 675 991 l 732 991 l 732 551 l 1175 991 l 1255 991 l 781 518 l 782 517 l 814 522 l 815 542 q 821 523 818 535 q 819 504 823 511 l 848 539 l 856 534 l 843 504 l 859 519 l 865 517 l 864 493 l 879 515 l 880 543 l 889 545 l 900 510 q 914 527 907 518 q 926 547 921 536 l 930 524 l 940 571 l 951 570 l 996 659 l 1006 647 l 1029 681 l 1036 676 q 1017 621 1027 648 q 1008 564 1007 593 l 1008 554 l 1010 554 l 1018 585 l 1026 583 l 1023 554 l 1068 554 q 1083 630 1076 591 q 1099 707 1089 668 l 1107 705 q 1103 630 1107 668 q 1097 554 1099 591 l 1099 554 l 1120 587 l 1126 583 l 1112 554 q 1190 550 1151 554 q 1265 528 1229 546 l 1267 521 q 1240 502 1255 513 q 1219 476 1226 490 q 1258 457 1236 460 q 1301 452 1280 453 l 1301 443 l 1261 447 l 1238 432 l 1276 419 l 1276 411 l 1215 396 l 1240 386 l 1238 378 l 1200 395 l 1202 403 l 1261 415 l 1226 428 l 1250 449 q 1153 465 1201 456 q 1059 488 1105 475 l 1034 437 l 1029 449 l 1010 414 l 1002 416 l 1010 500 l 981 510 l 999 518 l 1000 582 q 985 552 996 571 q 963 512 974 533 q 944 474 953 492 q 936 449 936 457 l 928 449 l 928 472 l 920 446 l 911 446 l 904 471 l 885 441 l 878 444 l 879 500 l 863 475 l 854 478 l 857 505 l 839 489 l 832 493 l 836 511 l 817 490 l 812 514 l 789 510 l 1297 0 l 1218 0 l 741 479 l 732 471 l 732 0 l 675 0 l 675 590 q 636 685 675 648 q 541 721 597 721 q 485 714 513 721 q 437 686 457 707 l 453 669 l 509 660 l 425 663 l 416 656 l 407 615 q 463 602 435 604 q 519 591 490 600 l 518 583 l 497 582 l 557 575 l 557 567 l 528 564 l 538 561 l 534 553 l 514 557 l 510 554 l 415 566 l 406 558 l 406 522 q 457 509 432 515 q 510 498 482 503 l 511 492 q 479 475 496 482 q 443 465 463 468 l 457 416 l 599 427 l 600 418 q 503 365 551 390 q 406 314 454 339 l 406 261 l 461 229 l 461 224 q 406 189 439 197 q 342 178 374 180 l 382 165 l 380 157 l 351 153 q 456 119 401 132 l 456 111 q 413 100 435 104 q 372 85 392 96 l 418 74 l 416 65 l 387 62 l 538 69 l 538 61 q 476 58 507 61 q 415 52 446 56 l 427 43 l 498 46 q 511 44 504 46 q 524 40 518 41 q 455 23 493 22 q 385 20 418 24 l 406 16 l 403 7 q 293 26 349 24 l 302 37 l 257 45 l 258 53 q 315 54 286 53 q 371 58 343 56 l 366 60 l 367 68 l 385 71 l 361 89 q 399 103 379 98 q 439 115 419 109 q 386 131 411 122 q 336 150 361 139 l 336 158 l 361 163 l 318 176 l 319 184 q 358 188 339 186 q 396 195 376 189 l 349 195 q 347 220 349 204 q 345 253 346 236 q 345 284 345 269 q 349 309 346 298 q 214 294 282 293 q 79 307 146 296 l 79 195 l 22 195 l 22 314 l 9 322 m 79 315 q 128 308 103 311 q 178 304 153 304 l 214 304 q 282 307 248 304 q 349 317 315 310 l 349 378 q 213 359 281 371 q 79 330 146 347 l 79 315 m 79 340 q 349 386 213 371 l 349 401 q 214 422 281 411 q 79 436 147 433 l 79 340 m 79 444 q 214 432 147 441 q 349 418 281 422 l 349 437 q 330 441 342 439 q 306 448 318 444 q 282 455 293 452 q 268 461 271 458 q 279 467 268 465 q 304 468 290 468 q 331 467 318 468 q 349 467 345 467 l 349 493 q 301 497 335 494 q 234 506 268 500 q 174 525 200 513 q 149 555 149 536 q 157 564 149 562 q 171 566 165 566 q 260 557 216 566 q 349 538 304 549 l 349 589 q 322 596 335 593 q 293 599 309 599 l 293 607 l 282 610 q 288 615 282 614 q 302 616 294 616 q 318 616 311 616 q 328 615 325 615 l 343 629 q 335 650 340 640 q 323 668 330 660 q 288 665 305 665 q 252 665 269 665 l 248 671 q 256 675 248 673 q 276 679 265 677 q 298 682 288 681 q 313 682 309 682 q 305 686 310 684 q 295 690 300 688 q 288 696 290 693 q 288 701 285 699 q 252 716 271 712 q 214 721 233 721 q 117 685 155 721 q 79 590 79 648 l 79 444 m 157 554 q 194 525 169 534 q 245 510 218 515 q 300 504 272 505 q 349 501 328 503 l 349 529 q 259 548 304 540 q 167 557 214 557 q 157 554 160 557 m 189 1048 l 201 1048 l 207 1048 l 214 1048 l 189 1048 m 298 606 l 317 604 l 298 606 m 302 46 q 317 44 309 45 q 334 43 325 43 q 346 46 338 43 q 359 50 354 49 q 302 46 330 46 m 313 458 q 331 453 322 456 q 349 447 339 450 l 349 458 l 313 458 m 318 32 q 335 30 326 31 q 353 29 343 29 l 358 29 q 370 30 365 29 q 380 32 375 31 q 370 32 378 32 q 361 35 363 32 l 334 35 q 318 32 327 35 m 318 750 q 327 747 321 747 q 336 746 334 746 l 323 755 l 318 750 m 339 734 l 347 726 q 357 725 354 726 l 359 725 q 351 732 357 729 q 342 736 346 734 l 339 734 m 340 614 l 347 614 l 346 619 l 340 614 m 355 600 l 357 599 l 355 600 m 355 718 q 358 715 357 715 q 361 711 359 714 q 367 713 363 713 q 372 717 370 714 l 370 718 q 362 718 367 718 q 355 718 358 717 m 368 703 l 370 699 l 378 699 l 383 699 l 383 701 q 385 706 383 704 q 387 711 386 708 q 377 708 383 711 q 368 703 371 705 m 370 43 l 383 43 l 412 43 q 408 46 410 45 q 403 49 406 47 q 386 46 395 47 q 370 43 378 45 m 376 399 l 378 399 l 376 399 m 380 690 l 382 690 l 380 690 m 387 720 l 389 720 l 387 720 m 406 197 q 453 227 435 205 q 431 242 442 235 q 406 253 419 249 l 406 197 m 406 323 q 493 370 450 347 q 579 416 536 392 q 457 408 519 411 l 457 400 q 464 400 458 400 q 476 400 471 400 q 489 399 483 400 q 494 395 494 397 q 489 391 494 392 q 476 389 484 390 q 463 388 469 389 q 454 387 456 387 q 437 353 450 368 q 406 329 424 339 l 406 323 m 406 339 q 430 359 419 347 q 446 387 441 372 q 426 385 435 386 q 406 385 416 385 l 406 370 l 410 368 q 407 360 408 366 q 406 353 406 355 l 406 339 m 406 404 q 412 404 407 404 q 426 402 418 403 q 439 401 433 401 q 449 400 446 400 l 449 407 l 406 407 l 406 404 m 406 427 q 414 424 408 425 q 419 419 419 422 q 414 415 419 415 l 449 415 q 445 441 448 429 q 433 464 441 453 q 419 463 427 463 q 406 461 412 463 l 406 427 m 406 469 q 416 470 411 469 q 427 471 421 471 q 406 484 416 479 l 406 469 m 406 492 q 422 484 414 489 q 437 472 431 479 q 470 478 451 475 q 500 492 489 482 q 453 502 476 496 q 406 514 429 507 l 406 492 m 406 606 l 415 606 q 406 607 408 606 l 406 606 m 428 675 q 433 674 431 675 q 439 673 436 673 l 432 681 q 428 675 429 677 m 432 33 q 471 35 452 35 q 510 39 490 35 q 471 35 490 36 q 432 35 452 35 l 432 33 m 452 578 l 453 578 l 456 578 l 452 578 m 475 586 l 486 583 q 489 589 486 586 l 484 589 q 475 586 478 586 m 500 572 l 504 571 l 501 571 l 500 572 m 500 574 l 501 571 l 504 571 l 514 571 l 500 574 m 886 458 q 894 469 890 464 q 901 482 897 475 l 897 493 q 892 486 895 490 q 886 482 889 482 l 886 458 m 890 498 l 893 503 l 892 509 l 890 498 m 903 500 l 905 492 q 913 504 911 500 q 916 515 916 507 q 903 500 911 511 m 909 481 l 914 469 l 914 489 l 909 481 m 942 488 q 954 510 945 493 q 974 547 964 528 q 992 583 985 567 q 1000 603 1000 599 q 999 624 1000 616 q 990 611 998 621 q 976 590 983 602 q 962 571 968 579 q 954 562 956 562 q 952 563 953 562 q 950 564 951 564 q 946 526 947 544 q 942 488 945 507 m 983 616 l 999 636 l 997 643 l 983 616 m 1007 621 q 1013 636 1010 627 q 1019 653 1017 644 l 1007 635 l 1007 621 m 1008 510 l 1011 510 l 1008 510 m 1008 518 l 1011 518 l 1014 539 q 1008 518 1011 532 m 1013 436 q 1031 464 1019 447 q 1047 490 1043 481 l 1018 498 q 1016 467 1017 483 q 1013 436 1015 452 m 1019 507 q 1034 502 1026 505 q 1050 497 1042 500 l 1053 507 q 1036 510 1042 510 l 1019 510 l 1019 507 m 1019 518 q 1038 518 1029 518 q 1057 515 1047 518 q 1064 536 1063 529 l 1060 539 q 1041 542 1050 541 q 1022 545 1032 543 l 1019 518 m 1063 494 q 1122 480 1092 486 q 1183 468 1152 473 q 1167 471 1179 469 q 1144 477 1156 473 q 1122 484 1132 481 q 1112 489 1112 486 l 1114 492 q 1089 498 1101 494 q 1065 504 1078 501 l 1063 494 m 1068 513 q 1138 495 1097 506 q 1207 484 1178 484 q 1221 485 1218 484 q 1223 497 1225 486 l 1226 501 q 1258 522 1249 508 q 1192 542 1226 538 q 1124 546 1158 546 l 1103 546 l 1101 541 q 1122 538 1105 539 q 1139 530 1139 536 l 1135 526 q 1096 530 1114 526 l 1093 529 q 1083 532 1090 532 q 1072 533 1076 532 q 1071 523 1072 528 q 1068 513 1069 518 m 1076 554 l 1089 554 q 1093 604 1090 579 q 1097 656 1095 629 q 1087 604 1092 629 q 1076 554 1083 579 m 1178 478 q 1197 473 1187 475 q 1218 468 1207 471 q 1197 475 1202 475 q 1178 478 1194 475 z "},"Ø":{"ha":1141,"x_min":69,"x_max":1090,"o":"m 69 496 q 211 863 69 721 q 579 1006 354 1006 q 856 933 733 1006 l 913 1014 l 964 982 l 905 899 q 1090 496 1090 753 q 947 129 1090 271 q 579 -14 804 -14 q 314 53 436 -14 l 258 -28 l 208 5 l 264 86 q 118 267 168 155 q 69 496 69 375 m 126 496 q 171 286 126 379 q 297 134 214 195 l 823 886 q 579 950 709 950 q 254 822 382 950 q 126 496 126 694 m 347 100 q 579 43 454 43 q 907 168 779 43 q 1034 496 1034 294 q 872 851 1034 722 l 347 100 z "},"Ù":{"ha":770,"x_min":106,"x_max":681,"o":"m 106 248 l 106 991 l 161 991 l 161 248 q 231 97 161 152 q 392 47 294 47 q 553 98 488 47 q 624 248 623 154 l 624 991 l 681 991 l 681 248 q 593 54 681 127 q 392 -9 516 -9 q 191 56 271 -9 q 106 248 106 126 m 240 1210 l 269 1240 l 436 1072 l 406 1044 l 240 1210 z "},"Ú":{"ha":770,"x_min":106,"x_max":681,"o":"m 106 248 l 106 991 l 161 991 l 161 248 q 231 97 161 152 q 392 47 294 47 q 553 98 488 47 q 624 248 623 154 l 624 991 l 681 991 l 681 248 q 593 54 681 127 q 392 -9 516 -9 q 191 56 271 -9 q 106 248 106 126 m 371 1074 l 526 1229 l 553 1202 l 399 1047 l 371 1074 z "},"Û":{"ha":770,"x_min":106,"x_max":681,"o":"m 106 248 l 106 991 l 161 991 l 161 248 q 231 97 161 152 q 392 47 294 47 q 553 98 488 47 q 624 248 623 154 l 624 991 l 681 991 l 681 248 q 593 54 681 127 q 392 -9 516 -9 q 191 56 271 -9 q 106 248 106 126 m 225 1086 l 395 1254 l 561 1086 l 533 1057 l 395 1194 l 256 1057 l 225 1086 z "},"Ü":{"ha":770,"x_min":106,"x_max":681,"o":"m 106 248 l 106 991 l 161 991 l 161 248 q 231 97 161 152 q 392 47 294 47 q 553 98 488 47 q 624 248 623 154 l 624 991 l 681 991 l 681 248 q 593 54 681 127 q 392 -9 516 -9 q 191 56 271 -9 q 106 248 106 126 m 249 1105 q 294 1152 249 1143 q 340 1105 330 1152 q 294 1060 340 1059 q 262 1072 279 1060 q 249 1105 250 1084 m 439 1105 q 485 1152 439 1143 q 530 1105 519 1152 q 485 1060 530 1059 q 453 1072 469 1060 q 439 1105 441 1084 z "},"Ý":{"ha":709,"x_min":46,"x_max":668,"o":"m 46 991 l 111 991 l 355 562 l 603 991 l 668 991 l 385 496 l 385 0 l 328 0 l 328 496 l 46 991 m 342 1071 l 497 1232 l 526 1202 l 371 1047 l 342 1071 z "},"Þ":{"ha":680,"x_min":106,"x_max":616,"o":"m 106 0 l 106 991 l 161 991 l 161 750 l 347 750 q 539 683 461 750 q 616 504 616 616 q 539 323 616 390 q 347 254 461 254 l 161 254 l 161 0 l 106 0 m 161 311 l 346 311 q 498 361 437 311 q 559 504 559 414 q 496 646 559 594 q 346 693 439 693 l 161 693 l 161 311 z "},"ß":{"ha":748,"x_min":31,"x_max":701,"o":"m 31 517 l 31 574 l 110 574 l 110 746 q 170 924 110 859 q 340 991 229 991 q 507 928 436 991 q 576 766 576 863 q 465 561 576 634 q 624 489 559 549 q 701 292 701 415 q 632 83 701 164 q 432 0 558 0 l 275 0 l 275 57 l 433 57 q 587 127 526 57 q 644 292 644 195 q 347 518 644 518 l 347 574 q 471 632 422 574 q 519 766 519 692 q 467 886 519 837 q 340 935 414 935 q 165 745 165 935 l 165 0 l 110 0 l 110 517 l 31 517 z "},"à":{"ha":708,"x_min":49,"x_max":631,"o":"m 49 286 q 134 496 49 411 q 345 582 220 582 q 574 473 482 582 l 574 574 l 631 574 l 631 0 l 574 0 l 574 98 q 345 -9 484 -10 q 135 75 220 -9 q 49 286 49 161 m 104 286 q 175 117 104 188 q 345 46 245 46 q 514 115 444 46 q 585 286 585 186 q 514 455 585 385 q 345 526 443 526 q 175 457 245 526 q 104 286 104 387 m 178 836 l 208 869 l 395 684 l 359 652 l 178 836 z "},"á":{"ha":708,"x_min":49,"x_max":631,"o":"m 49 286 q 134 496 49 411 q 345 582 220 582 q 574 473 482 582 l 574 574 l 631 574 l 631 0 l 574 0 l 574 98 q 345 -9 484 -10 q 135 75 220 -9 q 49 286 49 161 m 104 286 q 175 117 104 188 q 345 46 245 46 q 514 115 444 46 q 585 286 585 186 q 514 455 585 385 q 345 526 443 526 q 175 457 245 526 q 104 286 104 387 m 300 684 l 486 869 l 517 836 l 335 652 l 300 684 z "},"â":{"ha":708,"x_min":49,"x_max":631,"o":"m 49 286 q 134 496 49 411 q 345 582 220 582 q 574 473 482 582 l 574 574 l 631 574 l 631 0 l 574 0 l 574 98 q 345 -9 484 -10 q 135 75 220 -9 q 49 286 49 161 m 104 286 q 175 117 104 188 q 345 46 245 46 q 514 115 444 46 q 585 286 585 186 q 514 455 585 385 q 345 526 443 526 q 175 457 245 526 q 104 286 104 387 m 171 689 l 340 856 l 507 689 l 479 659 l 340 796 l 201 659 l 171 689 z "},"ã":{"ha":708,"x_min":49,"x_max":631,"o":"m 49 286 q 134 496 49 411 q 345 582 220 582 q 574 473 482 582 l 574 574 l 631 574 l 631 0 l 574 0 l 574 98 q 345 -9 484 -10 q 135 75 220 -9 q 49 286 49 161 m 104 286 q 175 117 104 188 q 345 46 245 46 q 514 115 444 46 q 585 286 585 186 q 514 455 585 385 q 345 526 443 526 q 175 457 245 526 q 104 286 104 387 m 126 713 q 258 783 165 783 q 290 782 277 783 q 314 778 302 781 q 353 758 332 772 l 393 741 l 436 734 q 532 774 497 734 l 571 743 l 545 715 l 522 697 q 439 677 486 677 q 340 703 378 677 q 320 714 330 709 q 300 722 310 720 l 258 728 q 164 682 207 728 l 126 713 z "},"ä":{"ha":708,"x_min":49,"x_max":631,"o":"m 49 286 q 134 496 49 411 q 345 582 220 582 q 574 473 482 582 l 574 574 l 631 574 l 631 0 l 574 0 l 574 98 q 345 -9 484 -10 q 135 75 220 -9 q 49 286 49 161 m 104 286 q 175 117 104 188 q 345 46 245 46 q 514 115 444 46 q 585 286 585 186 q 514 455 585 385 q 345 526 443 526 q 175 457 245 526 q 104 286 104 387 m 192 722 q 237 768 192 760 q 283 722 273 768 q 237 676 283 676 q 205 689 222 676 q 192 722 193 701 m 382 722 q 428 768 382 760 q 473 722 463 768 q 428 676 473 676 q 396 689 412 676 q 382 722 384 701 z "},"å":{"ha":708,"x_min":49,"x_max":631,"o":"m 49 286 q 134 496 49 411 q 345 582 220 582 q 574 473 482 582 l 574 574 l 631 574 l 631 0 l 574 0 l 574 98 q 345 -9 484 -10 q 135 75 220 -9 q 49 286 49 161 m 104 286 q 175 117 104 188 q 345 46 245 46 q 514 115 444 46 q 585 286 585 186 q 514 455 585 385 q 345 526 443 526 q 175 457 245 526 q 104 286 104 387 m 224 747 q 258 828 224 793 q 339 863 293 863 q 420 828 385 863 q 454 747 454 793 q 419 667 454 701 q 339 632 385 632 q 258 667 293 632 q 224 747 224 701 m 253 749 q 279 689 253 715 q 339 663 306 663 q 399 689 372 663 q 425 749 425 715 q 399 808 425 782 q 339 835 372 835 q 279 808 306 835 q 253 749 253 782 z "},"æ":{"ha":1219,"x_min":49,"x_max":1171,"o":"m 49 286 q 134 496 49 411 q 345 582 220 582 q 574 473 482 582 l 574 574 l 631 574 l 631 461 q 875 581 714 581 q 1086 503 1001 581 q 1171 298 1171 426 l 633 298 q 696 114 633 182 q 875 45 761 45 q 981 64 933 45 q 1088 165 1040 89 l 1139 142 q 972 3 1084 39 q 875 -11 930 -11 q 631 109 717 -11 l 631 0 l 574 0 l 574 98 q 345 -9 484 -10 q 135 75 220 -9 q 49 286 49 161 m 104 286 q 175 117 104 188 q 345 46 245 46 q 514 115 444 46 q 585 286 585 186 q 514 455 585 385 q 345 526 443 526 q 175 457 245 526 q 104 286 104 387 m 642 353 l 1107 353 q 1043 464 1093 416 q 875 525 978 525 q 642 353 697 525 z "},"ç":{"ha":608,"x_min":65,"x_max":538,"o":"m 65 286 q 150 498 65 415 q 363 583 235 583 q 493 558 431 583 l 538 533 l 538 458 l 517 476 l 496 493 q 363 528 436 528 q 191 460 257 528 q 122 286 123 392 q 190 114 122 182 q 363 46 258 46 q 494 81 435 46 l 538 115 l 538 40 l 497 16 q 392 -9 447 -9 l 374 -57 q 411 -125 403 -71 q 386 -179 411 -157 q 328 -201 359 -201 q 257 -167 286 -201 l 275 -118 l 297 -138 q 325 -146 309 -146 q 347 -135 336 -146 l 351 -126 l 354 -115 q 340 -86 354 -100 l 314 -65 l 332 -11 q 139 83 212 1 q 65 286 65 165 z "},"è":{"ha":680,"x_min":47,"x_max":640,"o":"m 47 286 q 131 498 47 415 q 345 583 216 583 q 555 504 472 583 q 640 298 640 425 l 103 298 q 165 114 103 182 q 345 45 231 45 q 450 64 403 45 q 557 165 510 89 l 608 142 q 441 3 554 39 q 345 -11 399 -11 q 132 74 216 -11 q 47 286 47 159 m 111 353 l 576 353 q 494 481 563 432 q 345 528 429 528 q 111 353 167 528 m 189 836 l 220 869 l 406 684 l 371 652 l 189 836 z "},"é":{"ha":680,"x_min":47,"x_max":640,"o":"m 47 286 q 131 498 47 415 q 345 583 216 583 q 555 504 472 583 q 640 298 640 425 l 103 298 q 165 114 103 182 q 345 45 231 45 q 450 64 403 45 q 557 165 510 89 l 608 142 q 441 3 554 39 q 345 -11 399 -11 q 132 74 216 -11 q 47 286 47 159 m 111 353 l 576 353 q 494 481 563 432 q 345 528 429 528 q 111 353 167 528 m 278 684 l 464 869 l 494 836 l 311 652 l 278 684 z "},"ê":{"ha":680,"x_min":47,"x_max":640,"o":"m 47 286 q 131 498 47 415 q 345 583 216 583 q 555 504 472 583 q 640 298 640 425 l 103 298 q 165 114 103 182 q 345 45 231 45 q 450 64 403 45 q 557 165 510 89 l 608 142 q 441 3 554 39 q 345 -11 399 -11 q 132 74 216 -11 q 47 286 47 159 m 111 353 l 576 353 q 494 481 563 432 q 345 528 429 528 q 111 353 167 528 m 182 689 l 350 856 l 517 689 l 489 659 l 350 796 l 211 659 l 182 689 z "},"ë":{"ha":680,"x_min":47,"x_max":640,"o":"m 47 286 q 131 498 47 415 q 345 583 216 583 q 555 504 472 583 q 640 298 640 425 l 103 298 q 165 114 103 182 q 345 45 231 45 q 450 64 403 45 q 557 165 510 89 l 608 142 q 441 3 554 39 q 345 -11 399 -11 q 132 74 216 -11 q 47 286 47 159 m 111 353 l 576 353 q 494 481 563 432 q 345 528 429 528 q 111 353 167 528 m 201 722 q 248 768 201 760 q 293 722 282 768 q 248 676 293 676 q 215 689 232 676 q 201 722 203 701 m 392 722 q 437 768 392 760 q 484 722 473 768 q 437 676 484 676 q 406 689 422 676 q 392 722 393 701 z "},"ì":{"ha":255,"x_min":-53,"x_max":164,"o":"m -53 836 l -21 869 l 164 684 l 131 652 l -53 836 m 102 0 l 102 574 l 158 574 l 158 0 l 102 0 z "},"í":{"ha":255,"x_min":102,"x_max":319,"o":"m 102 0 l 102 574 l 158 574 l 158 0 l 102 0 m 102 684 l 288 869 l 319 836 l 136 652 l 102 684 z "},"î":{"ha":354,"x_min":11,"x_max":347,"o":"m 11 689 l 180 856 l 347 689 l 319 659 l 180 796 l 41 659 l 11 689 m 149 0 l 149 574 l 205 574 l 205 0 l 149 0 z "},"ï":{"ha":255,"x_min":-14,"x_max":268,"o":"m -14 722 q 32 768 -14 757 q 78 722 67 768 q 32 676 78 676 q -14 722 -5 676 m 102 0 l 102 574 l 158 574 l 158 0 l 102 0 m 176 722 q 222 768 176 760 q 268 722 257 768 q 222 676 268 676 q 191 689 207 676 q 176 722 178 701 z "},"ð":{"ha":691,"x_min":49,"x_max":640,"o":"m 49 286 q 134 496 49 411 q 345 582 220 582 q 559 489 471 582 q 383 764 525 661 l 264 689 l 208 725 l 329 802 l 267 833 l 196 863 l 245 911 q 392 840 321 890 l 514 917 l 570 880 l 443 802 q 589 610 545 711 q 640 286 640 489 q 555 77 640 161 q 345 -9 469 -9 q 135 75 220 -9 q 49 286 49 161 m 104 286 q 175 117 104 188 q 345 46 245 46 q 514 115 444 46 q 585 286 585 186 q 514 455 585 385 q 345 526 443 526 q 175 457 245 526 q 104 286 104 387 z "},"ñ":{"ha":626,"x_min":89,"x_max":534,"o":"m 89 713 q 221 783 127 783 q 293 770 256 783 q 304 764 298 767 q 317 757 310 761 l 357 741 l 406 734 l 437 734 l 454 741 q 494 774 465 745 l 534 743 l 509 715 l 486 697 q 411 677 454 677 q 304 703 346 677 l 264 720 q 214 728 244 728 q 127 682 162 728 l 89 713 m 92 0 l 92 574 l 149 574 l 149 504 q 314 581 187 581 q 478 519 421 581 q 534 349 534 458 l 534 0 l 478 0 l 478 343 q 314 525 478 525 q 192 478 233 525 q 149 349 149 431 l 149 0 l 92 0 z "},"ò":{"ha":691,"x_min":49,"x_max":640,"o":"m 49 286 q 135 496 49 410 q 345 583 220 583 q 554 497 468 583 q 640 286 640 411 q 555 77 640 161 q 345 -9 469 -9 q 135 75 220 -9 q 49 286 49 161 m 104 286 q 175 117 104 188 q 345 46 245 46 q 514 115 444 46 q 585 286 585 186 q 515 457 585 388 q 345 528 446 528 q 176 456 248 528 q 104 286 104 384 m 187 836 l 218 869 l 404 684 l 370 652 l 187 836 z "},"ó":{"ha":691,"x_min":49,"x_max":640,"o":"m 49 286 q 135 496 49 410 q 345 583 220 583 q 554 497 468 583 q 640 286 640 411 q 555 77 640 161 q 345 -9 469 -9 q 135 75 220 -9 q 49 286 49 161 m 104 286 q 175 117 104 188 q 345 46 245 46 q 514 115 444 46 q 585 286 585 186 q 515 457 585 388 q 345 528 446 528 q 176 456 248 528 q 104 286 104 384 m 283 684 l 469 869 l 500 836 l 318 652 l 283 684 z "},"ô":{"ha":691,"x_min":49,"x_max":640,"o":"m 49 286 q 135 496 49 410 q 345 583 220 583 q 554 497 468 583 q 640 286 640 411 q 555 77 640 161 q 345 -9 469 -9 q 135 75 220 -9 q 49 286 49 161 m 104 286 q 175 117 104 188 q 345 46 245 46 q 514 115 444 46 q 585 286 585 186 q 515 457 585 388 q 345 528 446 528 q 176 456 248 528 q 104 286 104 384 m 171 689 l 340 856 l 507 689 l 479 659 l 340 796 l 201 659 l 171 689 z "},"õ":{"ha":691,"x_min":49,"x_max":640,"o":"m 49 286 q 135 496 49 410 q 345 583 220 583 q 554 497 468 583 q 640 286 640 411 q 555 77 640 161 q 345 -9 469 -9 q 135 75 220 -9 q 49 286 49 161 m 104 286 q 175 117 104 188 q 345 46 245 46 q 514 115 444 46 q 585 286 585 186 q 515 457 585 388 q 345 528 446 528 q 176 456 248 528 q 104 286 104 384 m 114 713 q 245 783 153 783 q 318 770 280 783 q 329 764 323 767 q 342 757 335 761 l 382 741 l 431 734 l 463 734 l 479 741 q 519 774 490 745 l 559 743 l 533 715 l 511 697 q 436 677 479 677 q 329 703 371 677 l 289 720 q 239 728 269 728 q 153 682 187 728 l 114 713 z "},"ö":{"ha":691,"x_min":49,"x_max":640,"o":"m 49 286 q 135 496 49 410 q 345 583 220 583 q 554 497 468 583 q 640 286 640 411 q 555 77 640 161 q 345 -9 469 -9 q 135 75 220 -9 q 49 286 49 161 m 104 286 q 175 117 104 188 q 345 46 245 46 q 514 115 444 46 q 585 286 585 186 q 515 457 585 388 q 345 528 446 528 q 176 456 248 528 q 104 286 104 384 m 197 722 q 243 768 197 760 q 289 722 278 768 q 243 676 289 676 q 211 689 227 676 q 197 722 199 701 m 387 722 q 433 768 387 760 q 479 722 469 768 q 433 676 479 676 q 401 689 418 676 q 387 722 389 701 z "},"÷":{"ha":503,"x_min":79,"x_max":436,"o":"m 79 332 l 79 403 l 436 403 l 436 332 l 79 332 m 211 203 q 257 249 211 240 q 302 203 292 249 q 257 157 302 157 q 225 170 241 157 q 211 203 213 182 m 211 529 q 257 575 211 566 q 302 529 292 575 q 257 484 302 483 q 225 496 241 484 q 211 529 213 508 z "},"ø":{"ha":691,"x_min":49,"x_max":640,"o":"m 49 286 q 134 496 49 411 q 345 582 220 582 q 494 542 425 582 l 550 621 l 600 587 l 543 505 q 640 286 640 417 q 555 77 640 161 q 345 -9 469 -9 q 204 25 268 -9 l 153 -49 l 106 -14 l 155 58 q 49 286 48 146 m 104 286 q 187 104 104 176 l 463 496 q 345 526 406 526 q 175 457 245 526 q 104 286 104 387 m 237 71 l 262 60 l 289 52 l 345 46 q 514 115 444 46 q 585 286 585 186 q 511 460 585 391 l 237 71 z "},"ù":{"ha":595,"x_min":85,"x_max":513,"o":"m 85 215 l 85 574 l 142 574 l 142 215 q 178 89 142 133 q 297 45 215 44 q 457 215 457 45 l 457 574 l 513 574 l 513 215 q 457 50 513 109 q 297 -11 400 -11 q 140 49 195 -11 q 85 215 85 109 m 122 836 l 153 869 l 339 684 l 304 652 l 122 836 z "},"ú":{"ha":595,"x_min":85,"x_max":513,"o":"m 85 215 l 85 574 l 142 574 l 142 215 q 178 89 142 133 q 297 45 215 44 q 457 215 457 45 l 457 574 l 513 574 l 513 215 q 457 50 513 109 q 297 -11 400 -11 q 140 49 195 -11 q 85 215 85 109 m 271 684 l 457 869 l 488 836 l 304 652 l 271 684 z "},"û":{"ha":595,"x_min":85,"x_max":513,"o":"m 85 215 l 85 574 l 142 574 l 142 215 q 178 89 142 133 q 297 45 215 44 q 457 215 457 45 l 457 574 l 513 574 l 513 215 q 457 50 513 109 q 297 -11 400 -11 q 140 49 195 -11 q 85 215 85 109 m 131 689 l 298 856 l 467 689 l 437 659 l 298 796 l 160 659 l 131 689 z "},"ü":{"ha":595,"x_min":85,"x_max":513,"o":"m 85 215 l 85 574 l 142 574 l 142 215 q 178 89 142 133 q 297 45 215 44 q 457 215 457 45 l 457 574 l 513 574 l 513 215 q 457 50 513 109 q 297 -11 400 -11 q 140 49 195 -11 q 85 215 85 109 m 155 722 q 201 768 155 760 q 248 722 237 768 q 201 676 248 676 q 170 689 186 676 q 155 722 157 701 m 346 722 q 392 768 346 760 q 437 722 427 768 q 392 676 437 676 q 359 689 376 676 q 346 722 347 701 z "},"ý":{"ha":1141,"x_min":69,"x_max":1090,"o":"m 69 496 q 211 863 69 721 q 579 1006 354 1006 q 856 933 733 1006 l 913 1014 l 964 982 l 905 899 q 1090 496 1090 753 q 947 129 1090 271 q 579 -14 804 -14 q 314 53 436 -14 l 258 -28 l 208 5 l 264 86 q 118 267 168 155 q 69 496 69 375 m 126 496 q 171 286 126 379 q 297 134 214 195 l 823 886 q 579 950 709 950 q 254 822 379 950 q 126 496 127 694 m 319 576 q 354 657 319 623 q 435 692 389 692 q 515 657 481 692 q 550 576 550 623 q 515 496 550 530 q 435 461 481 461 q 354 496 389 461 q 319 576 319 530 m 347 100 q 579 43 454 43 q 907 168 779 43 q 1034 496 1033 294 l 1034 518 q 1015 496 1025 506 q 935 461 981 461 q 854 496 888 461 q 819 576 819 530 q 854 657 819 623 q 935 692 889 692 q 1006 665 975 692 q 872 851 968 774 l 347 100 m 349 578 q 375 518 349 545 q 435 492 401 492 q 494 518 468 492 q 521 578 521 545 q 494 637 521 611 q 435 664 468 664 q 375 637 401 664 q 349 578 349 611 m 418 554 q 427 575 418 566 q 449 585 436 585 q 470 576 461 585 q 479 554 479 567 q 470 533 479 542 q 449 524 461 524 q 427 533 437 524 q 418 554 418 542 m 557 210 l 586 243 q 713 189 640 189 q 831 240 779 189 l 856 210 q 707 149 803 149 q 557 210 614 149 m 848 578 q 875 518 848 545 q 935 492 901 492 q 994 518 968 492 q 1021 578 1021 545 q 994 637 1021 611 q 935 664 968 664 q 875 637 901 664 q 848 578 848 611 m 920 550 q 928 571 920 562 q 950 581 937 581 q 971 571 962 581 q 981 550 981 562 q 971 529 981 538 q 950 519 962 519 q 929 529 938 519 q 920 550 920 538 z "},"þ":{"ha":712,"x_min":89,"x_max":677,"o":"m 89 -269 l 89 1028 l 146 1028 l 146 465 q 382 582 235 582 q 591 497 507 582 q 677 286 677 411 q 593 77 677 161 q 382 -9 507 -9 q 146 107 239 -9 l 146 -269 l 89 -269 m 142 286 q 213 117 142 188 q 382 46 283 46 q 551 115 481 46 q 623 286 623 186 q 552 455 623 385 q 382 526 481 526 q 212 457 282 526 q 142 286 142 387 z "},"ÿ":{"ha":618,"x_min":39,"x_max":587,"o":"m 39 574 l 100 574 l 314 121 l 525 574 l 587 574 l 196 -269 l 132 -269 l 281 53 l 39 574 m 178 722 q 224 768 178 760 q 269 722 258 768 q 224 676 269 676 q 192 689 208 676 q 178 722 180 701 m 368 722 q 414 768 368 760 q 460 722 449 768 q 414 676 460 676 q 382 689 398 676 q 368 722 370 701 z "},"Œ":{"ha":1594,"x_min":69,"x_max":1510,"o":"m 69 496 q 211 863 69 721 q 579 1006 354 1006 q 844 940 726 1006 q 1034 743 968 871 l 1034 991 l 1510 991 l 1510 935 l 1090 935 l 1090 574 l 1510 574 l 1510 513 l 1090 513 l 1090 57 l 1510 57 l 1510 0 l 1034 0 l 1034 249 q 844 52 966 120 q 579 -14 730 -14 q 212 127 354 -14 q 69 496 69 271 m 126 496 q 253 171 126 297 q 579 43 380 43 q 907 168 779 43 q 1034 496 1034 294 q 907 822 1034 696 q 579 950 779 949 q 254 822 382 950 q 126 496 126 694 z "},"œ":{"ha":1226,"x_min":49,"x_max":1179,"o":"m 49 286 q 134 496 49 411 q 345 582 220 582 q 500 536 429 582 q 611 412 572 489 q 719 536 646 492 q 884 581 793 581 q 1095 503 1010 581 q 1179 298 1179 426 l 642 298 q 704 114 642 182 q 884 45 769 45 q 989 64 942 45 q 1096 165 1048 89 l 1147 142 q 981 3 1093 39 q 884 -11 938 -11 q 721 33 795 -11 q 611 160 649 79 q 504 36 575 81 q 345 -9 430 -10 q 135 75 220 -9 q 49 286 49 161 m 104 286 q 175 117 104 188 q 345 46 245 46 q 514 115 444 46 q 585 286 585 186 q 514 455 585 385 q 345 526 443 526 q 175 457 245 526 q 104 286 104 387 m 650 353 l 1116 353 q 1051 464 1102 416 q 884 525 986 525 q 650 353 706 525 z "},"Ÿ":{"ha":709,"x_min":46,"x_max":668,"o":"m 46 991 l 111 991 l 355 562 l 603 991 l 668 991 l 385 496 l 385 0 l 328 0 l 328 496 l 46 991 m 210 1105 q 256 1152 210 1143 q 301 1105 290 1152 q 256 1060 301 1059 q 224 1072 240 1060 q 210 1105 212 1084 m 400 1105 q 446 1152 400 1143 q 492 1105 481 1152 q 446 1060 492 1059 q 414 1072 430 1060 q 400 1105 401 1084 z "},"ˆ":{"ha":525,"x_min":100,"x_max":433,"o":"m 100 689 l 267 856 l 433 689 l 406 659 l 267 796 l 127 659 l 100 689 z "},"˜":{"ha":587,"x_min":78,"x_max":524,"o":"m 78 713 q 210 783 117 783 q 282 770 244 783 q 293 764 288 767 q 306 757 298 761 l 346 741 l 395 734 l 427 734 l 443 741 q 484 774 454 745 l 524 743 l 497 715 l 475 697 q 400 677 443 677 q 293 703 335 677 l 253 720 q 203 728 233 728 q 117 682 151 728 l 78 713 z "}," ":{"ha":627,"x_min":0,"x_max":0,"o":""}," ":{"ha":1254,"x_min":0,"x_max":0,"o":""}," ":{"ha":627,"x_min":0,"x_max":0,"o":""}," ":{"ha":1254,"x_min":0,"x_max":0,"o":""}," ":{"ha":418,"x_min":0,"x_max":0,"o":""}," ":{"ha":313,"x_min":0,"x_max":0,"o":""}," ":{"ha":209,"x_min":0,"x_max":0,"o":""}," ":{"ha":209,"x_min":0,"x_max":0,"o":""}," ":{"ha":157,"x_min":0,"x_max":0,"o":""}," ":{"ha":250,"x_min":0,"x_max":0,"o":""}," ":{"ha":69,"x_min":0,"x_max":0,"o":""},"‐":{"ha":376,"x_min":25,"x_max":318,"o":"m 25 339 l 25 396 l 318 396 l 318 339 l 25 339 z "},"‑":{"ha":376,"x_min":25,"x_max":318,"o":"m 25 339 l 25 396 l 318 396 l 318 339 l 25 339 z "},"‒":{"ha":376,"x_min":25,"x_max":318,"o":"m 25 339 l 25 396 l 318 396 l 318 339 l 25 339 z "},"–":{"ha":516,"x_min":58,"x_max":463,"o":"m 58 339 l 58 396 l 463 396 l 463 339 l 58 339 z "},"—":{"ha":857,"x_min":72,"x_max":794,"o":"m 72 339 l 72 396 l 794 396 l 794 339 l 72 339 z "},"‘":{"ha":226,"x_min":79,"x_max":153,"o":"m 79 783 l 79 946 q 104 1011 79 992 l 132 1011 q 107 946 107 983 l 107 884 l 153 884 l 153 783 l 79 783 z "},"’":{"ha":219,"x_min":87,"x_max":161,"o":"m 87 922 l 87 1022 l 161 1022 l 161 860 q 136 794 161 825 l 109 794 q 134 860 134 821 l 134 922 l 87 922 z "},"‚":{"ha":219,"x_min":87,"x_max":161,"o":"m 87 83 l 87 183 l 161 183 l 161 21 q 154 -16 161 1 q 136 -45 150 -35 l 109 -45 q 134 21 134 -18 l 134 83 l 87 83 z "},"“":{"ha":397,"x_min":85,"x_max":318,"o":"m 85 783 l 85 946 q 110 1011 85 992 l 138 1011 q 113 946 113 983 l 113 884 l 158 884 l 158 783 l 85 783 m 244 783 l 244 946 q 269 1011 244 992 l 297 1011 q 272 946 272 983 l 272 884 l 318 884 l 318 783 l 244 783 z "},"”":{"ha":418,"x_min":92,"x_max":325,"o":"m 92 922 l 92 1022 l 165 1022 l 165 860 q 140 794 165 825 l 113 794 q 138 860 138 821 l 138 922 l 92 922 m 252 922 l 252 1022 l 325 1022 l 325 860 q 300 794 325 825 l 272 794 q 297 860 297 821 l 297 922 l 252 922 z "},"„":{"ha":418,"x_min":92,"x_max":325,"o":"m 92 83 l 92 183 l 165 183 l 165 21 q 158 -16 165 1 q 140 -45 154 -35 l 113 -45 q 138 21 138 -18 l 138 83 l 92 83 m 252 83 l 252 183 l 325 183 l 325 21 q 318 -16 325 1 q 300 -45 314 -35 l 272 -45 q 297 21 297 -18 l 297 83 l 252 83 z "},"•":{"ha":408,"x_min":66,"x_max":297,"o":"m 66 456 q 100 538 66 502 q 182 571 134 571 q 264 538 231 571 q 297 456 297 502 q 264 374 297 407 q 182 340 231 340 q 100 374 134 340 q 66 456 66 407 z "},"…":{"ha":581,"x_min":-5,"x_max":484,"o":"m -5 37 q 40 83 -5 75 q 86 37 75 83 q 40 -8 86 -9 q 8 4 24 -8 q -5 37 -4 16 m 193 37 q 239 83 193 75 q 285 37 274 83 q 239 -8 285 -9 q 207 4 223 -8 q 193 37 195 16 m 392 37 q 437 83 392 75 q 484 37 473 83 q 437 -8 484 -9 q 406 4 422 -8 q 392 37 393 16 z "}," ":{"ha":250,"x_min":0,"x_max":0,"o":""},"‹":{"ha":390,"x_min":36,"x_max":326,"o":"m 36 354 l 297 616 l 326 587 l 92 354 l 321 126 l 292 97 l 36 354 z "},"›":{"ha":390,"x_min":62,"x_max":353,"o":"m 62 587 l 90 616 l 353 354 l 96 97 l 68 126 l 296 354 l 62 587 z "}," ":{"ha":313,"x_min":0,"x_max":0,"o":""},"€":{"ha":975,"x_min":1,"x_max":942,"o":"m 1 379 l 1 435 l 86 435 q 84 466 85 450 q 83 496 83 481 q 83 522 83 509 q 85 549 83 536 l 1 549 l 1 606 l 93 606 q 225 863 119 757 q 593 1006 368 1006 q 823 968 720 1006 q 942 900 884 944 l 942 829 q 814 907 884 878 q 593 950 708 949 q 268 822 393 950 q 151 606 176 732 l 924 606 l 924 549 l 143 549 q 141 523 142 536 q 140 496 140 510 q 141 465 140 480 q 143 435 142 450 l 924 435 l 924 379 l 153 379 q 267 171 180 257 q 593 43 394 43 q 808 87 716 43 q 942 172 861 114 l 942 107 l 875 58 q 664 -11 797 1 q 630 -13 648 -12 q 593 -14 612 -14 q 227 127 368 -14 q 94 379 121 233 l 1 379 z "},"™":{"ha":468,"x_min":54,"x_max":437,"o":"m 54 972 l 54 981 l 205 981 l 205 972 l 135 972 l 135 758 l 125 758 l 125 972 l 54 972 m 199 760 l 249 983 l 319 778 l 392 983 l 437 760 l 428 760 l 389 951 l 319 749 l 250 951 l 208 760 l 199 760 z "},"◼":{"ha":576,"x_min":0,"x_max":576,"o":"m 0 0 l 0 576 l 576 576 l 576 0 l 0 0 z "}}}
